ISO-10303-21;
HEADER;

/* File generated by Shapr3D Version 26.121.0.11316 */

FILE_DESCRIPTION(('HOOPS Exchange Step'),'2;1');

FILE_NAME('/Users/will/Library/Containers/com.shapr3d.shapr/Data/tmp/export/temp_export',
'2026-08-25T12:29:04-03:00',
('will'),
('Shapr3D Limited'),
'HOOPS Exchange 2026.3',
'Shapr3D',
'Authorized');

FILE_SCHEMA( ('AP242_MANAGED_MODEL_BASED_3D_ENGINEERING_MIM_LF {1 0 10303 442 1 1 4}') );

ENDSEC;

DATA;
#3=(NAMED_UNIT(*)PLANE_ANGLE_UNIT()SI_UNIT($,.RADIAN.));
#4=PLANE_ANGLE_MEASURE_WITH_UNIT(PLANE_ANGLE_MEASURE(0.0174532925),#3);
#5=(CONVERSION_BASED_UNIT('DEGREE',#4)NAMED_UNIT(#6)PLANE_ANGLE_UNIT());
#6=DIMENSIONAL_EXPONENTS(0.,0.,0.,0.,0.,0.,0.);
#7=(NAMED_UNIT(*)SI_UNIT($,.STERADIAN.)SOLID_ANGLE_UNIT());
#8=(LENGTH_UNIT()NAMED_UNIT(*)SI_UNIT(.MILLI.,.METRE.));
#9=UNCERTAINTY_MEASURE_WITH_UNIT(LENGTH_MEASURE(1.000000E-03),#8,'DISTANCE_ACCURACY_VALUE','Maximum Tolerance applied to model');
#10=(GEOMETRIC_REPRESENTATION_CONTEXT(3)GLOBAL_UNCERTAINTY_ASSIGNED_CONTEXT((#9))GLOBAL_UNIT_ASSIGNED_CONTEXT((#8,#5,#7))REPRESENTATION_CONTEXT('','root'));
#12=CARTESIAN_POINT('',(0.,0.,0.));
#13=DIRECTION('',(0.,0.,1.));
#14=DIRECTION('',(1.,0.,0.));
#15=AXIS2_PLACEMENT_3D('',#12,#13,#14);
#26=(NAMED_UNIT(*)PLANE_ANGLE_UNIT()SI_UNIT($,.RADIAN.));
#27=PLANE_ANGLE_MEASURE_WITH_UNIT(PLANE_ANGLE_MEASURE(0.0174532925),#26);
#28=(CONVERSION_BASED_UNIT('DEGREE',#27)NAMED_UNIT(#29)PLANE_ANGLE_UNIT());
#29=DIMENSIONAL_EXPONENTS(0.,0.,0.,0.,0.,0.,0.);
#30=(NAMED_UNIT(*)SI_UNIT($,.STERADIAN.)SOLID_ANGLE_UNIT());
#31=(LENGTH_UNIT()NAMED_UNIT(*)SI_UNIT(.MILLI.,.METRE.));
#32=UNCERTAINTY_MEASURE_WITH_UNIT(LENGTH_MEASURE(1.000000E-05),#31,'DISTANCE_ACCURACY_VALUE','Maximum Tolerance applied to model');
#33=(GEOMETRIC_REPRESENTATION_CONTEXT(3)GLOBAL_UNCERTAINTY_ASSIGNED_CONTEXT((#32))GLOBAL_UNIT_ASSIGNED_CONTEXT((#31,#28,#30))REPRESENTATION_CONTEXT('','Left'));
#45=CARTESIAN_POINT('',(0.,0.,0.));
#46=DIRECTION('',(0.,0.,1.));
#47=DIRECTION('',(1.,0.,-0.));
#48=AXIS2_PLACEMENT_3D('',#45,#46,#47);
#49=ITEM_DEFINED_TRANSFORMATION('','',#48,#15);
#50=(REPRESENTATION_RELATIONSHIP('','',#35,#16)REPRESENTATION_RELATIONSHIP_WITH_TRANSFORMATION(#49)SHAPE_REPRESENTATION_RELATIONSHIP());
#51=NEXT_ASSEMBLY_USAGE_OCCURRENCE('Left_1','Left','Left',#25,#44,$);
#52=PRODUCT_DEFINITION_SHAPE('','',#51);
#53=CONTEXT_DEPENDENT_SHAPE_REPRESENTATION(#50,#52);
#55=CARTESIAN_POINT('',(81.00303772,-107.068589571,-1.69));
#56=DIRECTION('',(0.,1.,0.));
#57=DIRECTION('',(0.,0.,1.));
#58=AXIS2_PLACEMENT_3D('',#55,#56,#57);
#59=PLANE('',#58);
#60=CARTESIAN_POINT('',(72.424462576,-107.068589571,-0.79));
#61=VERTEX_POINT('',#60);
#62=CARTESIAN_POINT('',(89.581612863,-107.068589571,-0.79));
#63=VERTEX_POINT('',#62);
#64=CARTESIAN_POINT('',(72.424462576,-107.068589571,-0.79));
#65=DIRECTION('',(1.,0.,-0.));
#66=VECTOR('',#65,17.157150288);
#67=LINE('',#64,#66);
#68=EDGE_CURVE('',#61,#63,#67,.T.);
#69=ORIENTED_EDGE('',*,*,#68,.F.);
#70=CARTESIAN_POINT('',(72.38304122,-107.068589571,-0.831421356));
#71=VERTEX_POINT('',#70);
#72=CARTESIAN_POINT('',(72.424462576,-107.068589571,-0.79));
#73=DIRECTION('',(-0.707106781,0.,-0.707106781));
#74=VECTOR('',#73,0.058578644);
#75=LINE('',#72,#74);
#76=EDGE_CURVE('',#61,#71,#75,.T.);
#77=ORIENTED_EDGE('',*,*,#76,.T.);
#78=CARTESIAN_POINT('',(72.38304122,-107.068589571,-1.79));
#79=VERTEX_POINT('',#78);
#80=CARTESIAN_POINT('',(72.38304122,-107.068589571,-0.831421356));
#81=DIRECTION('',(0.,0.,-1.));
#82=VECTOR('',#81,0.958578644);
#83=LINE('',#80,#82);
#84=EDGE_CURVE('',#71,#79,#83,.T.);
#85=ORIENTED_EDGE('',*,*,#84,.T.);
#86=CARTESIAN_POINT('',(89.62303422,-107.068589571,-1.79));
#87=VERTEX_POINT('',#86);
#88=CARTESIAN_POINT('',(72.38304122,-107.068589571,-1.79));
#89=DIRECTION('',(1.,0.,-0.));
#90=VECTOR('',#89,17.239993);
#91=LINE('',#88,#90);
#92=EDGE_CURVE('',#79,#87,#91,.T.);
#93=ORIENTED_EDGE('',*,*,#92,.T.);
#94=CARTESIAN_POINT('',(89.62303422,-107.068589571,-0.831421356));
#95=VERTEX_POINT('',#94);
#96=CARTESIAN_POINT('',(89.62303422,-107.068589571,-0.831421356));
#97=DIRECTION('',(0.,0.,-1.));
#98=VECTOR('',#97,0.958578644);
#99=LINE('',#96,#98);
#100=EDGE_CURVE('',#95,#87,#99,.T.);
#101=ORIENTED_EDGE('',*,*,#100,.F.);
#102=CARTESIAN_POINT('',(89.62303422,-107.068589571,-0.831421356));
#103=DIRECTION('',(-0.707106781,0.,0.707106781));
#104=VECTOR('',#103,0.058578644);
#105=LINE('',#102,#104);
#106=EDGE_CURVE('',#95,#63,#105,.T.);
#107=ORIENTED_EDGE('',*,*,#106,.T.);
#108=EDGE_LOOP('',(#69,#77,#85,#93,#101,#107));
#109=FACE_BOUND('',#108,.T.);
#110=ADVANCED_FACE('',(#109),#59,.F.);
#111=CARTESIAN_POINT('',(122.125063442,-103.253739952,-0.79));
#112=DIRECTION('',(0.,0.,-1.));
#113=DIRECTION('',(-1.,0.,0.));
#114=AXIS2_PLACEMENT_3D('',#111,#112,#113);
#115=PLANE('',#114);
#116=CARTESIAN_POINT('',(72.424462576,-108.988591571,-0.79));
#117=VERTEX_POINT('',#116);
#118=CARTESIAN_POINT('',(72.424462576,-108.988591571,-0.79));
#119=DIRECTION('',(0.,1.,0.));
#120=VECTOR('',#119,1.920002);
#121=LINE('',#118,#120);
#122=EDGE_CURVE('',#117,#61,#121,.T.);
#123=ORIENTED_EDGE('',*,*,#122,.T.);
#124=ORIENTED_EDGE('',*,*,#68,.T.);
#125=CARTESIAN_POINT('',(89.581612863,-108.988591571,-0.79));
#126=VERTEX_POINT('',#125);
#127=CARTESIAN_POINT('',(89.581612863,-107.068589571,-0.79));
#128=DIRECTION('',(0.,-1.,0.));
#129=VECTOR('',#128,1.920002);
#130=LINE('',#127,#129);
#131=EDGE_CURVE('',#63,#126,#130,.T.);
#132=ORIENTED_EDGE('',*,*,#131,.T.);
#133=CARTESIAN_POINT('',(89.581612863,-108.988591571,-0.79));
#134=DIRECTION('',(-1.,0.,0.));
#135=VECTOR('',#134,17.157150288);
#136=LINE('',#133,#135);
#137=EDGE_CURVE('',#126,#117,#136,.T.);
#138=ORIENTED_EDGE('',*,*,#137,.T.);
#139=EDGE_LOOP('',(#123,#124,#132,#138));
#140=FACE_BOUND('',#139,.T.);
#141=ADVANCED_FACE('',(#140),#115,.T.);
#142=CARTESIAN_POINT('',(81.00303772,-108.988591571,-1.69));
#143=DIRECTION('',(0.,-1.,0.));
#144=DIRECTION('',(0.,0.,-1.));
#145=AXIS2_PLACEMENT_3D('',#142,#143,#144);
#146=PLANE('',#145);
#147=ORIENTED_EDGE('',*,*,#137,.F.);
#148=CARTESIAN_POINT('',(89.62303422,-108.988591571,-0.831421356));
#149=VERTEX_POINT('',#148);
#150=CARTESIAN_POINT('',(89.581612863,-108.988591571,-0.79));
#151=DIRECTION('',(0.707106781,0.,-0.707106781));
#152=VECTOR('',#151,0.058578644);
#153=LINE('',#150,#152);
#154=EDGE_CURVE('',#126,#149,#153,.T.);
#155=ORIENTED_EDGE('',*,*,#154,.T.);
#156=CARTESIAN_POINT('',(89.62303422,-108.988591571,-1.79));
#157=VERTEX_POINT('',#156);
#158=CARTESIAN_POINT('',(89.62303422,-108.988591571,-0.831421356));
#159=DIRECTION('',(0.,0.,-1.));
#160=VECTOR('',#159,0.958578644);
#161=LINE('',#158,#160);
#162=EDGE_CURVE('',#149,#157,#161,.T.);
#163=ORIENTED_EDGE('',*,*,#162,.T.);
#164=CARTESIAN_POINT('',(72.38304122,-108.988591571,-1.79));
#165=VERTEX_POINT('',#164);
#166=CARTESIAN_POINT('',(89.62303422,-108.988591571,-1.79));
#167=DIRECTION('',(-1.,0.,0.));
#168=VECTOR('',#167,17.239993);
#169=LINE('',#166,#168);
#170=EDGE_CURVE('',#157,#165,#169,.T.);
#171=ORIENTED_EDGE('',*,*,#170,.T.);
#172=CARTESIAN_POINT('',(72.38304122,-108.988591571,-0.831421356));
#173=VERTEX_POINT('',#172);
#174=CARTESIAN_POINT('',(72.38304122,-108.988591571,-0.831421356));
#175=DIRECTION('',(0.,0.,-1.));
#176=VECTOR('',#175,0.958578644);
#177=LINE('',#174,#176);
#178=EDGE_CURVE('',#173,#165,#177,.T.);
#179=ORIENTED_EDGE('',*,*,#178,.F.);
#180=CARTESIAN_POINT('',(72.38304122,-108.988591571,-0.831421356));
#181=DIRECTION('',(0.707106781,0.,0.707106781));
#182=VECTOR('',#181,0.058578644);
#183=LINE('',#180,#182);
#184=EDGE_CURVE('',#173,#117,#183,.T.);
#185=ORIENTED_EDGE('',*,*,#184,.T.);
#186=EDGE_LOOP('',(#147,#155,#163,#171,#179,#185));
#187=FACE_BOUND('',#186,.T.);
#188=ADVANCED_FACE('',(#187),#146,.F.);
#189=CARTESIAN_POINT('',(122.125063442,-103.253739952,0.21));
#190=DIRECTION('',(0.,0.,1.));
#191=DIRECTION('',(1.,0.,0.));
#192=AXIS2_PLACEMENT_3D('',#189,#190,#191);
#193=PLANE('',#192);
#194=CARTESIAN_POINT('',(89.62303422,-106.468589571,0.21));
#195=VERTEX_POINT('',#194);
#196=CARTESIAN_POINT('',(72.38304122,-106.468589571,0.21));
#197=VERTEX_POINT('',#196);
#198=CARTESIAN_POINT('',(89.62303422,-106.468589571,0.21));
#199=DIRECTION('',(-1.,0.,0.));
#200=VECTOR('',#199,17.239993);
#201=LINE('',#198,#200);
#202=EDGE_CURVE('',#195,#197,#201,.T.);
#203=ORIENTED_EDGE('',*,*,#202,.T.);
#204=CARTESIAN_POINT('',(72.08304122,-106.768589571,0.21));
#205=VERTEX_POINT('',#204);
#206=CARTESIAN_POINT('',(72.38304122,-106.768589571,0.21));
#207=DIRECTION('',(0.,0.,1.));
#208=DIRECTION('',(1.,0.,-0.));
#209=AXIS2_PLACEMENT_3D('',#206,#207,#208);
#210=CIRCLE('',#209,0.3);
#211=EDGE_CURVE('',#197,#205,#210,.T.);
#212=ORIENTED_EDGE('',*,*,#211,.T.);
#213=CARTESIAN_POINT('',(72.08304122,-109.288591571,0.21));
#214=VERTEX_POINT('',#213);
#215=CARTESIAN_POINT('',(72.08304122,-106.768589571,0.21));
#216=DIRECTION('',(0.,-1.,0.));
#217=VECTOR('',#216,2.520002);
#218=LINE('',#215,#217);
#219=EDGE_CURVE('',#205,#214,#218,.T.);
#220=ORIENTED_EDGE('',*,*,#219,.T.);
#221=CARTESIAN_POINT('',(72.38304122,-109.588591571,0.21));
#222=VERTEX_POINT('',#221);
#223=CARTESIAN_POINT('',(72.38304122,-109.288591571,0.21));
#224=DIRECTION('',(0.,0.,1.));
#225=DIRECTION('',(1.,0.,-0.));
#226=AXIS2_PLACEMENT_3D('',#223,#224,#225);
#227=CIRCLE('',#226,0.3);
#228=EDGE_CURVE('',#214,#222,#227,.T.);
#229=ORIENTED_EDGE('',*,*,#228,.T.);
#230=CARTESIAN_POINT('',(89.62303422,-109.588591571,0.21));
#231=VERTEX_POINT('',#230);
#232=CARTESIAN_POINT('',(72.38304122,-109.588591571,0.21));
#233=DIRECTION('',(1.,0.,-0.));
#234=VECTOR('',#233,17.239993);
#235=LINE('',#232,#234);
#236=EDGE_CURVE('',#222,#231,#235,.T.);
#237=ORIENTED_EDGE('',*,*,#236,.T.);
#238=CARTESIAN_POINT('',(89.92303422,-109.288591571,0.21));
#239=VERTEX_POINT('',#238);
#240=CARTESIAN_POINT('',(89.62303422,-109.288591571,0.21));
#241=DIRECTION('',(0.,0.,1.));
#242=DIRECTION('',(1.,0.,-0.));
#243=AXIS2_PLACEMENT_3D('',#240,#241,#242);
#244=CIRCLE('',#243,0.3);
#245=EDGE_CURVE('',#231,#239,#244,.T.);
#246=ORIENTED_EDGE('',*,*,#245,.T.);
#247=CARTESIAN_POINT('',(89.92303422,-106.768589571,0.21));
#248=VERTEX_POINT('',#247);
#249=CARTESIAN_POINT('',(89.92303422,-109.288591571,0.21));
#250=DIRECTION('',(0.,1.,0.));
#251=VECTOR('',#250,2.520002);
#252=LINE('',#249,#251);
#253=EDGE_CURVE('',#239,#248,#252,.T.);
#254=ORIENTED_EDGE('',*,*,#253,.T.);
#255=CARTESIAN_POINT('',(89.62303422,-106.768589571,0.21));
#256=DIRECTION('',(0.,0.,1.));
#257=DIRECTION('',(1.,0.,-0.));
#258=AXIS2_PLACEMENT_3D('',#255,#256,#257);
#259=CIRCLE('',#258,0.3);
#260=EDGE_CURVE('',#248,#195,#259,.T.);
#261=ORIENTED_EDGE('',*,*,#260,.T.);
#262=EDGE_LOOP('',(#203,#212,#220,#229,#237,#246,#254,#261));
#263=FACE_BOUND('',#262,.T.);
#264=ADVANCED_FACE('',(#263),#193,.T.);
#265=CARTESIAN_POINT('',(122.125063442,-103.253739952,-1.79));
#266=DIRECTION('',(0.,0.,1.));
#267=DIRECTION('',(1.,0.,0.));
#268=AXIS2_PLACEMENT_3D('',#265,#266,#267);
#269=PLANE('',#268);
#270=CARTESIAN_POINT('',(72.224462576,-108.830012927,-1.79));
#271=VERTEX_POINT('',#270);
#272=CARTESIAN_POINT('',(72.224462576,-107.227168215,-1.79));
#273=VERTEX_POINT('',#272);
#274=CARTESIAN_POINT('',(72.224462576,-108.830012927,-1.79));
#275=DIRECTION('',(0.,1.,0.));
#276=VECTOR('',#275,1.602844712);
#277=LINE('',#274,#276);
#278=EDGE_CURVE('',#271,#273,#277,.T.);
#279=ORIENTED_EDGE('',*,*,#278,.F.);
#280=CARTESIAN_POINT('',(72.38304122,-108.830012927,-1.79));
#281=DIRECTION('',(-0.,0.,-1.));
#282=DIRECTION('',(-0.,-1.,0.));
#283=AXIS2_PLACEMENT_3D('',#280,#281,#282);
#284=CIRCLE('',#283,0.158578644);
#285=EDGE_CURVE('',#165,#271,#284,.T.);
#286=ORIENTED_EDGE('',*,*,#285,.F.);
#287=ORIENTED_EDGE('',*,*,#170,.F.);
#288=CARTESIAN_POINT('',(89.781612863,-108.830012927,-1.79));
#289=VERTEX_POINT('',#288);
#290=CARTESIAN_POINT('',(89.62303422,-108.830012927,-1.79));
#291=DIRECTION('',(0.,0.,-1.));
#292=DIRECTION('',(1.,0.,0.));
#293=AXIS2_PLACEMENT_3D('',#290,#291,#292);
#294=CIRCLE('',#293,0.158578644);
#295=EDGE_CURVE('',#289,#157,#294,.T.);
#296=ORIENTED_EDGE('',*,*,#295,.F.);
#297=CARTESIAN_POINT('',(89.781612863,-107.227168215,-1.79));
#298=VERTEX_POINT('',#297);
#299=CARTESIAN_POINT('',(89.781612863,-107.227168215,-1.79));
#300=DIRECTION('',(0.,-1.,0.));
#301=VECTOR('',#300,1.602844712);
#302=LINE('',#299,#301);
#303=EDGE_CURVE('',#298,#289,#302,.T.);
#304=ORIENTED_EDGE('',*,*,#303,.F.);
#305=CARTESIAN_POINT('',(89.62303422,-107.227168215,-1.79));
#306=DIRECTION('',(0.,0.,-1.));
#307=DIRECTION('',(0.,1.,0.));
#308=AXIS2_PLACEMENT_3D('',#305,#306,#307);
#309=CIRCLE('',#308,0.158578644);
#310=EDGE_CURVE('',#87,#298,#309,.T.);
#311=ORIENTED_EDGE('',*,*,#310,.F.);
#312=ORIENTED_EDGE('',*,*,#92,.F.);
#313=CARTESIAN_POINT('',(72.38304122,-107.227168215,-1.79));
#314=DIRECTION('',(0.,0.,-1.));
#315=DIRECTION('',(-1.,0.,0.));
#316=AXIS2_PLACEMENT_3D('',#313,#314,#315);
#317=CIRCLE('',#316,0.158578644);
#318=EDGE_CURVE('',#273,#79,#317,.T.);
#319=ORIENTED_EDGE('',*,*,#318,.F.);
#320=EDGE_LOOP('',(#279,#286,#287,#296,#304,#311,#312,#319));
#321=FACE_BOUND('',#320,.T.);
#322=CARTESIAN_POINT('',(90.87303422,-109.788591571,-1.79));
#323=VERTEX_POINT('',#322);
#324=CARTESIAN_POINT('',(71.13304122,-109.788591571,-1.79));
#325=VERTEX_POINT('',#324);
#326=CARTESIAN_POINT('',(90.87303422,-109.788591571,-1.79));
#327=DIRECTION('',(-1.,0.,0.));
#328=VECTOR('',#327,19.739993);
#329=LINE('',#326,#328);
#330=EDGE_CURVE('',#323,#325,#329,.T.);
#331=ORIENTED_EDGE('',*,*,#330,.T.);
#332=CARTESIAN_POINT('',(70.63304122,-109.288591571,-1.79));
#333=VERTEX_POINT('',#332);
#334=CARTESIAN_POINT('',(71.13304122,-109.288591571,-1.79));
#335=DIRECTION('',(-0.,-0.,-1.));
#336=DIRECTION('',(1.,0.,-0.));
#337=AXIS2_PLACEMENT_3D('',#334,#335,#336);
#338=CIRCLE('',#337,0.5);
#339=EDGE_CURVE('',#325,#333,#338,.T.);
#340=ORIENTED_EDGE('',*,*,#339,.T.);
#341=CARTESIAN_POINT('',(70.63304122,-106.768589571,-1.79));
#342=VERTEX_POINT('',#341);
#343=CARTESIAN_POINT('',(70.63304122,-106.768589571,-1.79));
#344=DIRECTION('',(0.,-1.,0.));
#345=VECTOR('',#344,2.520002);
#346=LINE('',#343,#345);
#347=EDGE_CURVE('',#342,#333,#346,.T.);
#348=ORIENTED_EDGE('',*,*,#347,.F.);
#349=CARTESIAN_POINT('',(71.13304122,-106.268589571,-1.79));
#350=VERTEX_POINT('',#349);
#351=CARTESIAN_POINT('',(71.13304122,-106.768589571,-1.79));
#352=DIRECTION('',(-0.,-0.,-1.));
#353=DIRECTION('',(1.,0.,-0.));
#354=AXIS2_PLACEMENT_3D('',#351,#352,#353);
#355=CIRCLE('',#354,0.5);
#356=EDGE_CURVE('',#342,#350,#355,.T.);
#357=ORIENTED_EDGE('',*,*,#356,.T.);
#358=CARTESIAN_POINT('',(90.87303422,-106.268589571,-1.79));
#359=VERTEX_POINT('',#358);
#360=CARTESIAN_POINT('',(71.13304122,-106.268589571,-1.79));
#361=DIRECTION('',(1.,0.,-0.));
#362=VECTOR('',#361,19.739993);
#363=LINE('',#360,#362);
#364=EDGE_CURVE('',#350,#359,#363,.T.);
#365=ORIENTED_EDGE('',*,*,#364,.T.);
#366=CARTESIAN_POINT('',(91.37303422,-106.768589571,-1.79));
#367=VERTEX_POINT('',#366);
#368=CARTESIAN_POINT('',(90.87303422,-106.768589571,-1.79));
#369=DIRECTION('',(-0.,-0.,-1.));
#370=DIRECTION('',(1.,0.,-0.));
#371=AXIS2_PLACEMENT_3D('',#368,#369,#370);
#372=CIRCLE('',#371,0.5);
#373=EDGE_CURVE('',#359,#367,#372,.T.);
#374=ORIENTED_EDGE('',*,*,#373,.T.);
#375=CARTESIAN_POINT('',(91.37303422,-109.288591571,-1.79));
#376=VERTEX_POINT('',#375);
#377=CARTESIAN_POINT('',(91.37303422,-106.768589571,-1.79));
#378=DIRECTION('',(0.,-1.,0.));
#379=VECTOR('',#378,2.520002);
#380=LINE('',#377,#379);
#381=EDGE_CURVE('',#367,#376,#380,.T.);
#382=ORIENTED_EDGE('',*,*,#381,.T.);
#383=CARTESIAN_POINT('',(90.87303422,-109.288591571,-1.79));
#384=DIRECTION('',(-0.,-0.,-1.));
#385=DIRECTION('',(1.,0.,-0.));
#386=AXIS2_PLACEMENT_3D('',#383,#384,#385);
#387=CIRCLE('',#386,0.5);
#388=EDGE_CURVE('',#376,#323,#387,.T.);
#389=ORIENTED_EDGE('',*,*,#388,.T.);
#390=EDGE_LOOP('',(#331,#340,#348,#357,#365,#374,#382,#389));
#391=FACE_BOUND('',#390,.T.);
#392=ADVANCED_FACE('',(#321,#391),#269,.F.);
#393=CARTESIAN_POINT('',(90.12303422,-108.028590571,-0.89));
#394=DIRECTION('',(1.,0.,0.));
#395=DIRECTION('',(0.,0.,-1.));
#396=AXIS2_PLACEMENT_3D('',#393,#394,#395);
#397=PLANE('',#396);
#398=CARTESIAN_POINT('',(90.12303422,-106.768589571,0.01));
#399=VERTEX_POINT('',#398);
#400=CARTESIAN_POINT('',(90.12303422,-106.768589571,-0.99));
#401=VERTEX_POINT('',#400);
#402=CARTESIAN_POINT('',(90.12303422,-106.768589571,0.01));
#403=DIRECTION('',(0.,0.,-1.));
#404=VECTOR('',#403,1.);
#405=LINE('',#402,#404);
#406=EDGE_CURVE('',#399,#401,#405,.T.);
#407=ORIENTED_EDGE('',*,*,#406,.F.);
#408=CARTESIAN_POINT('',(90.12303422,-109.288591571,0.01));
#409=VERTEX_POINT('',#408);
#410=CARTESIAN_POINT('',(90.12303422,-106.768589571,0.01));
#411=DIRECTION('',(0.,-1.,0.));
#412=VECTOR('',#411,2.520002);
#413=LINE('',#410,#412);
#414=EDGE_CURVE('',#399,#409,#413,.T.);
#415=ORIENTED_EDGE('',*,*,#414,.T.);
#416=CARTESIAN_POINT('',(90.12303422,-109.288591571,-0.99));
#417=VERTEX_POINT('',#416);
#418=CARTESIAN_POINT('',(90.12303422,-109.288591571,0.01));
#419=DIRECTION('',(-0.,-0.,-1.));
#420=VECTOR('',#419,1.);
#421=LINE('',#418,#420);
#422=EDGE_CURVE('',#409,#417,#421,.T.);
#423=ORIENTED_EDGE('',*,*,#422,.T.);
#424=CARTESIAN_POINT('',(90.12303422,-106.768589571,-0.99));
#425=DIRECTION('',(0.,-1.,0.));
#426=VECTOR('',#425,2.520002);
#427=LINE('',#424,#426);
#428=EDGE_CURVE('',#401,#417,#427,.T.);
#429=ORIENTED_EDGE('',*,*,#428,.F.);
#430=EDGE_LOOP('',(#407,#415,#423,#429));
#431=FACE_BOUND('',#430,.T.);
#432=ADVANCED_FACE('',(#431),#397,.T.);
#433=CARTESIAN_POINT('',(89.62303422,-106.768589571,-0.89));
#434=DIRECTION('',(0.,0.,1.));
#435=DIRECTION('',(1.,0.,-0.));
#436=AXIS2_PLACEMENT_3D('',#433,#434,#435);
#437=CYLINDRICAL_SURFACE('',#436,0.5);
#438=CARTESIAN_POINT('',(89.62303422,-106.268589571,0.01));
#439=VERTEX_POINT('',#438);
#440=CARTESIAN_POINT('',(89.62303422,-106.268589571,-0.99));
#441=VERTEX_POINT('',#440);
#442=CARTESIAN_POINT('',(89.62303422,-106.268589571,0.01));
#443=DIRECTION('',(-0.,-0.,-1.));
#444=VECTOR('',#443,1.);
#445=LINE('',#442,#444);
#446=EDGE_CURVE('',#439,#441,#445,.T.);
#447=ORIENTED_EDGE('',*,*,#446,.F.);
#448=CARTESIAN_POINT('',(89.62303422,-106.768589571,0.01));
#449=DIRECTION('',(-0.,-0.,-1.));
#450=DIRECTION('',(1.,0.,-0.));
#451=AXIS2_PLACEMENT_3D('',#448,#449,#450);
#452=CIRCLE('',#451,0.5);
#453=EDGE_CURVE('',#439,#399,#452,.T.);
#454=ORIENTED_EDGE('',*,*,#453,.T.);
#455=ORIENTED_EDGE('',*,*,#406,.T.);
#456=CARTESIAN_POINT('',(89.62303422,-106.768589571,-0.99));
#457=DIRECTION('',(0.,0.,1.));
#458=DIRECTION('',(1.,0.,-0.));
#459=AXIS2_PLACEMENT_3D('',#456,#457,#458);
#460=CIRCLE('',#459,0.5);
#461=EDGE_CURVE('',#401,#441,#460,.T.);
#462=ORIENTED_EDGE('',*,*,#461,.T.);
#463=EDGE_LOOP('',(#447,#454,#455,#462));
#464=FACE_BOUND('',#463,.T.);
#465=ADVANCED_FACE('',(#464),#437,.T.);
#466=CARTESIAN_POINT('',(81.00303772,-106.268589571,-0.89));
#467=DIRECTION('',(0.,1.,0.));
#468=DIRECTION('',(0.,0.,1.));
#469=AXIS2_PLACEMENT_3D('',#466,#467,#468);
#470=PLANE('',#469);
#471=CARTESIAN_POINT('',(72.38304122,-106.268589571,0.01));
#472=VERTEX_POINT('',#471);
#473=CARTESIAN_POINT('',(72.38304122,-106.268589571,-0.99));
#474=VERTEX_POINT('',#473);
#475=CARTESIAN_POINT('',(72.38304122,-106.268589571,0.01));
#476=DIRECTION('',(0.,0.,-1.));
#477=VECTOR('',#476,1.);
#478=LINE('',#475,#477);
#479=EDGE_CURVE('',#472,#474,#478,.T.);
#480=ORIENTED_EDGE('',*,*,#479,.F.);
#481=CARTESIAN_POINT('',(72.38304122,-106.268589571,0.01));
#482=DIRECTION('',(1.,0.,-0.));
#483=VECTOR('',#482,17.239993);
#484=LINE('',#481,#483);
#485=EDGE_CURVE('',#472,#439,#484,.T.);
#486=ORIENTED_EDGE('',*,*,#485,.T.);
#487=ORIENTED_EDGE('',*,*,#446,.T.);
#488=CARTESIAN_POINT('',(90.87303422,-106.268589571,-0.99));
#489=VERTEX_POINT('',#488);
#490=CARTESIAN_POINT('',(89.62303422,-106.268589571,-0.99));
#491=DIRECTION('',(1.,0.,-0.));
#492=VECTOR('',#491,1.25);
#493=LINE('',#490,#492);
#494=EDGE_CURVE('',#441,#489,#493,.T.);
#495=ORIENTED_EDGE('',*,*,#494,.T.);
#496=CARTESIAN_POINT('',(90.87303422,-106.268589571,-0.99));
#497=DIRECTION('',(0.,0.,-1.));
#498=VECTOR('',#497,0.8);
#499=LINE('',#496,#498);
#500=EDGE_CURVE('',#489,#359,#499,.T.);
#501=ORIENTED_EDGE('',*,*,#500,.T.);
#502=ORIENTED_EDGE('',*,*,#364,.F.);
#503=CARTESIAN_POINT('',(71.13304122,-106.268589571,-0.99));
#504=VERTEX_POINT('',#503);
#505=CARTESIAN_POINT('',(71.13304122,-106.268589571,-1.79));
#506=DIRECTION('',(-0.,-0.,1.));
#507=VECTOR('',#506,0.8);
#508=LINE('',#505,#507);
#509=EDGE_CURVE('',#350,#504,#508,.T.);
#510=ORIENTED_EDGE('',*,*,#509,.T.);
#511=CARTESIAN_POINT('',(72.38304122,-106.268589571,-0.99));
#512=DIRECTION('',(-1.,0.,0.));
#513=VECTOR('',#512,1.25);
#514=LINE('',#511,#513);
#515=EDGE_CURVE('',#474,#504,#514,.T.);
#516=ORIENTED_EDGE('',*,*,#515,.F.);
#517=EDGE_LOOP('',(#480,#486,#487,#495,#501,#502,#510,#516));
#518=FACE_BOUND('',#517,.T.);
#519=ADVANCED_FACE('',(#518),#470,.T.);
#520=CARTESIAN_POINT('',(72.38304122,-106.768589571,-0.89));
#521=DIRECTION('',(0.,0.,1.));
#522=DIRECTION('',(1.,0.,-0.));
#523=AXIS2_PLACEMENT_3D('',#520,#521,#522);
#524=CYLINDRICAL_SURFACE('',#523,0.5);
#525=CARTESIAN_POINT('',(71.88304122,-106.768589571,0.01));
#526=VERTEX_POINT('',#525);
#527=CARTESIAN_POINT('',(71.88304122,-106.768589571,-0.99));
#528=VERTEX_POINT('',#527);
#529=CARTESIAN_POINT('',(71.88304122,-106.768589571,0.01));
#530=DIRECTION('',(-0.,-0.,-1.));
#531=VECTOR('',#530,1.);
#532=LINE('',#529,#531);
#533=EDGE_CURVE('',#526,#528,#532,.T.);
#534=ORIENTED_EDGE('',*,*,#533,.F.);
#535=CARTESIAN_POINT('',(72.38304122,-106.768589571,0.01));
#536=DIRECTION('',(-0.,-0.,-1.));
#537=DIRECTION('',(1.,0.,-0.));
#538=AXIS2_PLACEMENT_3D('',#535,#536,#537);
#539=CIRCLE('',#538,0.5);
#540=EDGE_CURVE('',#526,#472,#539,.T.);
#541=ORIENTED_EDGE('',*,*,#540,.T.);
#542=ORIENTED_EDGE('',*,*,#479,.T.);
#543=CARTESIAN_POINT('',(72.38304122,-106.768589571,-0.99));
#544=DIRECTION('',(0.,0.,1.));
#545=DIRECTION('',(1.,0.,-0.));
#546=AXIS2_PLACEMENT_3D('',#543,#544,#545);
#547=CIRCLE('',#546,0.5);
#548=EDGE_CURVE('',#474,#528,#547,.T.);
#549=ORIENTED_EDGE('',*,*,#548,.T.);
#550=EDGE_LOOP('',(#534,#541,#542,#549));
#551=FACE_BOUND('',#550,.T.);
#552=ADVANCED_FACE('',(#551),#524,.T.);
#553=CARTESIAN_POINT('',(71.88304122,-108.028590571,-0.89));
#554=DIRECTION('',(-1.,0.,0.));
#555=DIRECTION('',(0.,0.,1.));
#556=AXIS2_PLACEMENT_3D('',#553,#554,#555);
#557=PLANE('',#556);
#558=CARTESIAN_POINT('',(71.88304122,-109.288591571,0.01));
#559=VERTEX_POINT('',#558);
#560=CARTESIAN_POINT('',(71.88304122,-109.288591571,-0.99));
#561=VERTEX_POINT('',#560);
#562=CARTESIAN_POINT('',(71.88304122,-109.288591571,0.01));
#563=DIRECTION('',(0.,0.,-1.));
#564=VECTOR('',#563,1.);
#565=LINE('',#562,#564);
#566=EDGE_CURVE('',#559,#561,#565,.T.);
#567=ORIENTED_EDGE('',*,*,#566,.F.);
#568=CARTESIAN_POINT('',(71.88304122,-109.288591571,0.01));
#569=DIRECTION('',(0.,1.,0.));
#570=VECTOR('',#569,2.520002);
#571=LINE('',#568,#570);
#572=EDGE_CURVE('',#559,#526,#571,.T.);
#573=ORIENTED_EDGE('',*,*,#572,.T.);
#574=ORIENTED_EDGE('',*,*,#533,.T.);
#575=CARTESIAN_POINT('',(71.88304122,-109.288591571,-0.99));
#576=DIRECTION('',(0.,1.,0.));
#577=VECTOR('',#576,2.520002);
#578=LINE('',#575,#577);
#579=EDGE_CURVE('',#561,#528,#578,.T.);
#580=ORIENTED_EDGE('',*,*,#579,.F.);
#581=EDGE_LOOP('',(#567,#573,#574,#580));
#582=FACE_BOUND('',#581,.T.);
#583=ADVANCED_FACE('',(#582),#557,.T.);
#584=CARTESIAN_POINT('',(72.38304122,-109.288591571,-0.89));
#585=DIRECTION('',(0.,0.,1.));
#586=DIRECTION('',(1.,0.,-0.));
#587=AXIS2_PLACEMENT_3D('',#584,#585,#586);
#588=CYLINDRICAL_SURFACE('',#587,0.5);
#589=CARTESIAN_POINT('',(72.38304122,-109.788591571,0.01));
#590=VERTEX_POINT('',#589);
#591=CARTESIAN_POINT('',(72.38304122,-109.788591571,-0.99));
#592=VERTEX_POINT('',#591);
#593=CARTESIAN_POINT('',(72.38304122,-109.788591571,0.01));
#594=DIRECTION('',(-0.,-0.,-1.));
#595=VECTOR('',#594,1.);
#596=LINE('',#593,#595);
#597=EDGE_CURVE('',#590,#592,#596,.T.);
#598=ORIENTED_EDGE('',*,*,#597,.F.);
#599=CARTESIAN_POINT('',(72.38304122,-109.288591571,0.01));
#600=DIRECTION('',(-0.,-0.,-1.));
#601=DIRECTION('',(1.,0.,-0.));
#602=AXIS2_PLACEMENT_3D('',#599,#600,#601);
#603=CIRCLE('',#602,0.5);
#604=EDGE_CURVE('',#590,#559,#603,.T.);
#605=ORIENTED_EDGE('',*,*,#604,.T.);
#606=ORIENTED_EDGE('',*,*,#566,.T.);
#607=CARTESIAN_POINT('',(72.38304122,-109.288591571,-0.99));
#608=DIRECTION('',(0.,0.,1.));
#609=DIRECTION('',(1.,0.,-0.));
#610=AXIS2_PLACEMENT_3D('',#607,#608,#609);
#611=CIRCLE('',#610,0.5);
#612=EDGE_CURVE('',#561,#592,#611,.T.);
#613=ORIENTED_EDGE('',*,*,#612,.T.);
#614=EDGE_LOOP('',(#598,#605,#606,#613));
#615=FACE_BOUND('',#614,.T.);
#616=ADVANCED_FACE('',(#615),#588,.T.);
#617=CARTESIAN_POINT('',(81.00303772,-109.788591571,-0.89));
#618=DIRECTION('',(0.,-1.,0.));
#619=DIRECTION('',(0.,0.,-1.));
#620=AXIS2_PLACEMENT_3D('',#617,#618,#619);
#621=PLANE('',#620);
#622=CARTESIAN_POINT('',(89.62303422,-109.788591571,0.01));
#623=VERTEX_POINT('',#622);
#624=CARTESIAN_POINT('',(89.62303422,-109.788591571,-0.99));
#625=VERTEX_POINT('',#624);
#626=CARTESIAN_POINT('',(89.62303422,-109.788591571,0.01));
#627=DIRECTION('',(0.,0.,-1.));
#628=VECTOR('',#627,1.);
#629=LINE('',#626,#628);
#630=EDGE_CURVE('',#623,#625,#629,.T.);
#631=ORIENTED_EDGE('',*,*,#630,.F.);
#632=CARTESIAN_POINT('',(89.62303422,-109.788591571,0.01));
#633=DIRECTION('',(-1.,0.,0.));
#634=VECTOR('',#633,17.239993);
#635=LINE('',#632,#634);
#636=EDGE_CURVE('',#623,#590,#635,.T.);
#637=ORIENTED_EDGE('',*,*,#636,.T.);
#638=ORIENTED_EDGE('',*,*,#597,.T.);
#639=CARTESIAN_POINT('',(71.13304122,-109.788591571,-0.99));
#640=VERTEX_POINT('',#639);
#641=CARTESIAN_POINT('',(71.13304122,-109.788591571,-0.99));
#642=DIRECTION('',(1.,0.,-0.));
#643=VECTOR('',#642,1.25);
#644=LINE('',#641,#643);
#645=EDGE_CURVE('',#640,#592,#644,.T.);
#646=ORIENTED_EDGE('',*,*,#645,.F.);
#647=CARTESIAN_POINT('',(71.13304122,-109.788591571,-0.99));
#648=DIRECTION('',(0.,0.,-1.));
#649=VECTOR('',#648,0.8);
#650=LINE('',#647,#649);
#651=EDGE_CURVE('',#640,#325,#650,.T.);
#652=ORIENTED_EDGE('',*,*,#651,.T.);
#653=ORIENTED_EDGE('',*,*,#330,.F.);
#654=CARTESIAN_POINT('',(90.87303422,-109.788591571,-0.99));
#655=VERTEX_POINT('',#654);
#656=CARTESIAN_POINT('',(90.87303422,-109.788591571,-1.79));
#657=DIRECTION('',(-0.,-0.,1.));
#658=VECTOR('',#657,0.8);
#659=LINE('',#656,#658);
#660=EDGE_CURVE('',#323,#655,#659,.T.);
#661=ORIENTED_EDGE('',*,*,#660,.T.);
#662=CARTESIAN_POINT('',(90.87303422,-109.788591571,-0.99));
#663=DIRECTION('',(-1.,0.,0.));
#664=VECTOR('',#663,1.25);
#665=LINE('',#662,#664);
#666=EDGE_CURVE('',#655,#625,#665,.T.);
#667=ORIENTED_EDGE('',*,*,#666,.T.);
#668=EDGE_LOOP('',(#631,#637,#638,#646,#652,#653,#661,#667));
#669=FACE_BOUND('',#668,.T.);
#670=ADVANCED_FACE('',(#669),#621,.T.);
#671=CARTESIAN_POINT('',(89.62303422,-109.288591571,-0.89));
#672=DIRECTION('',(0.,0.,1.));
#673=DIRECTION('',(1.,0.,-0.));
#674=AXIS2_PLACEMENT_3D('',#671,#672,#673);
#675=CYLINDRICAL_SURFACE('',#674,0.5);
#676=ORIENTED_EDGE('',*,*,#422,.F.);
#677=CARTESIAN_POINT('',(89.62303422,-109.288591571,0.01));
#678=DIRECTION('',(-0.,-0.,-1.));
#679=DIRECTION('',(1.,0.,-0.));
#680=AXIS2_PLACEMENT_3D('',#677,#678,#679);
#681=CIRCLE('',#680,0.5);
#682=EDGE_CURVE('',#409,#623,#681,.T.);
#683=ORIENTED_EDGE('',*,*,#682,.T.);
#684=ORIENTED_EDGE('',*,*,#630,.T.);
#685=CARTESIAN_POINT('',(89.62303422,-109.288591571,-0.99));
#686=DIRECTION('',(0.,0.,1.));
#687=DIRECTION('',(1.,0.,-0.));
#688=AXIS2_PLACEMENT_3D('',#685,#686,#687);
#689=CIRCLE('',#688,0.5);
#690=EDGE_CURVE('',#625,#417,#689,.T.);
#691=ORIENTED_EDGE('',*,*,#690,.T.);
#692=EDGE_LOOP('',(#676,#683,#684,#691));
#693=FACE_BOUND('',#692,.T.);
#694=ADVANCED_FACE('',(#693),#675,.T.);
#695=CARTESIAN_POINT('',(91.37303422,-108.028590571,-1.19));
#696=DIRECTION('',(1.,0.,0.));
#697=DIRECTION('',(0.,0.,-1.));
#698=AXIS2_PLACEMENT_3D('',#695,#696,#697);
#699=PLANE('',#698);
#700=ORIENTED_EDGE('',*,*,#381,.F.);
#701=CARTESIAN_POINT('',(91.37303422,-106.768589571,-0.99));
#702=VERTEX_POINT('',#701);
#703=CARTESIAN_POINT('',(91.37303422,-106.768589571,-1.79));
#704=DIRECTION('',(-0.,-0.,1.));
#705=VECTOR('',#704,0.8);
#706=LINE('',#703,#705);
#707=EDGE_CURVE('',#367,#702,#706,.T.);
#708=ORIENTED_EDGE('',*,*,#707,.T.);
#709=CARTESIAN_POINT('',(91.37303422,-109.288591571,-0.99));
#710=VERTEX_POINT('',#709);
#711=CARTESIAN_POINT('',(91.37303422,-106.768589571,-0.99));
#712=DIRECTION('',(0.,-1.,0.));
#713=VECTOR('',#712,2.520002);
#714=LINE('',#711,#713);
#715=EDGE_CURVE('',#702,#710,#714,.T.);
#716=ORIENTED_EDGE('',*,*,#715,.T.);
#717=CARTESIAN_POINT('',(91.37303422,-109.288591571,-0.99));
#718=DIRECTION('',(0.,0.,-1.));
#719=VECTOR('',#718,0.8);
#720=LINE('',#717,#719);
#721=EDGE_CURVE('',#710,#376,#720,.T.);
#722=ORIENTED_EDGE('',*,*,#721,.T.);
#723=EDGE_LOOP('',(#700,#708,#716,#722));
#724=FACE_BOUND('',#723,.T.);
#725=ADVANCED_FACE('',(#724),#699,.T.);
#726=CARTESIAN_POINT('',(122.125063442,-103.253739952,-0.99));
#727=DIRECTION('',(0.,0.,1.));
#728=DIRECTION('',(1.,0.,0.));
#729=AXIS2_PLACEMENT_3D('',#726,#727,#728);
#730=PLANE('',#729);
#731=ORIENTED_EDGE('',*,*,#715,.F.);
#732=CARTESIAN_POINT('',(90.87303422,-106.768589571,-0.99));
#733=DIRECTION('',(0.,0.,1.));
#734=DIRECTION('',(1.,0.,-0.));
#735=AXIS2_PLACEMENT_3D('',#732,#733,#734);
#736=CIRCLE('',#735,0.5);
#737=EDGE_CURVE('',#702,#489,#736,.T.);
#738=ORIENTED_EDGE('',*,*,#737,.T.);
#739=ORIENTED_EDGE('',*,*,#494,.F.);
#740=ORIENTED_EDGE('',*,*,#461,.F.);
#741=ORIENTED_EDGE('',*,*,#428,.T.);
#742=ORIENTED_EDGE('',*,*,#690,.F.);
#743=ORIENTED_EDGE('',*,*,#666,.F.);
#744=CARTESIAN_POINT('',(90.87303422,-109.288591571,-0.99));
#745=DIRECTION('',(0.,0.,1.));
#746=DIRECTION('',(1.,0.,-0.));
#747=AXIS2_PLACEMENT_3D('',#744,#745,#746);
#748=CIRCLE('',#747,0.5);
#749=EDGE_CURVE('',#655,#710,#748,.T.);
#750=ORIENTED_EDGE('',*,*,#749,.T.);
#751=EDGE_LOOP('',(#731,#738,#739,#740,#741,#742,#743,#750));
#752=FACE_BOUND('',#751,.T.);
#753=ADVANCED_FACE('',(#752),#730,.T.);
#754=CARTESIAN_POINT('',(70.63304122,-108.028590571,-1.19));
#755=DIRECTION('',(1.,0.,0.));
#756=DIRECTION('',(-0.,1.,0.));
#757=AXIS2_PLACEMENT_3D('',#754,#755,#756);
#758=PLANE('',#757);
#759=ORIENTED_EDGE('',*,*,#347,.T.);
#760=CARTESIAN_POINT('',(70.63304122,-109.288591571,-0.99));
#761=VERTEX_POINT('',#760);
#762=CARTESIAN_POINT('',(70.63304122,-109.288591571,-1.79));
#763=DIRECTION('',(-0.,-0.,1.));
#764=VECTOR('',#763,0.8);
#765=LINE('',#762,#764);
#766=EDGE_CURVE('',#333,#761,#765,.T.);
#767=ORIENTED_EDGE('',*,*,#766,.T.);
#768=CARTESIAN_POINT('',(70.63304122,-106.768589571,-0.99));
#769=VERTEX_POINT('',#768);
#770=CARTESIAN_POINT('',(70.63304122,-106.768589571,-0.99));
#771=DIRECTION('',(0.,-1.,0.));
#772=VECTOR('',#771,2.520002);
#773=LINE('',#770,#772);
#774=EDGE_CURVE('',#769,#761,#773,.T.);
#775=ORIENTED_EDGE('',*,*,#774,.F.);
#776=CARTESIAN_POINT('',(70.63304122,-106.768589571,-0.99));
#777=DIRECTION('',(0.,0.,-1.));
#778=VECTOR('',#777,0.8);
#779=LINE('',#776,#778);
#780=EDGE_CURVE('',#769,#342,#779,.T.);
#781=ORIENTED_EDGE('',*,*,#780,.T.);
#782=EDGE_LOOP('',(#759,#767,#775,#781));
#783=FACE_BOUND('',#782,.T.);
#784=ADVANCED_FACE('',(#783),#758,.F.);
#785=CARTESIAN_POINT('',(122.125063442,-103.253739952,-0.99));
#786=DIRECTION('',(0.,0.,1.));
#787=DIRECTION('',(1.,0.,0.));
#788=AXIS2_PLACEMENT_3D('',#785,#786,#787);
#789=PLANE('',#788);
#790=ORIENTED_EDGE('',*,*,#774,.T.);
#791=CARTESIAN_POINT('',(71.13304122,-109.288591571,-0.99));
#792=DIRECTION('',(0.,0.,1.));
#793=DIRECTION('',(1.,0.,-0.));
#794=AXIS2_PLACEMENT_3D('',#791,#792,#793);
#795=CIRCLE('',#794,0.5);
#796=EDGE_CURVE('',#761,#640,#795,.T.);
#797=ORIENTED_EDGE('',*,*,#796,.T.);
#798=ORIENTED_EDGE('',*,*,#645,.T.);
#799=ORIENTED_EDGE('',*,*,#612,.F.);
#800=ORIENTED_EDGE('',*,*,#579,.T.);
#801=ORIENTED_EDGE('',*,*,#548,.F.);
#802=ORIENTED_EDGE('',*,*,#515,.T.);
#803=CARTESIAN_POINT('',(71.13304122,-106.768589571,-0.99));
#804=DIRECTION('',(0.,0.,1.));
#805=DIRECTION('',(1.,0.,-0.));
#806=AXIS2_PLACEMENT_3D('',#803,#804,#805);
#807=CIRCLE('',#806,0.5);
#808=EDGE_CURVE('',#504,#769,#807,.T.);
#809=ORIENTED_EDGE('',*,*,#808,.T.);
#810=EDGE_LOOP('',(#790,#797,#798,#799,#800,#801,#802,#809));
#811=FACE_BOUND('',#810,.T.);
#812=ADVANCED_FACE('',(#811),#789,.T.);
#813=CARTESIAN_POINT('',(90.87303422,-109.288591571,-1.19));
#814=DIRECTION('',(0.,0.,-1.));
#815=DIRECTION('',(-1.,0.,0.));
#816=AXIS2_PLACEMENT_3D('',#813,#814,#815);
#817=CYLINDRICAL_SURFACE('',#816,0.5);
#818=ORIENTED_EDGE('',*,*,#749,.F.);
#819=ORIENTED_EDGE('',*,*,#660,.F.);
#820=ORIENTED_EDGE('',*,*,#388,.F.);
#821=ORIENTED_EDGE('',*,*,#721,.F.);
#822=EDGE_LOOP('',(#818,#819,#820,#821));
#823=FACE_BOUND('',#822,.T.);
#824=ADVANCED_FACE('',(#823),#817,.T.);
#825=CARTESIAN_POINT('',(90.87303422,-106.768589571,-0.89));
#826=DIRECTION('',(0.,0.,-1.));
#827=DIRECTION('',(-1.,0.,0.));
#828=AXIS2_PLACEMENT_3D('',#825,#826,#827);
#829=CYLINDRICAL_SURFACE('',#828,0.5);
#830=ORIENTED_EDGE('',*,*,#737,.F.);
#831=ORIENTED_EDGE('',*,*,#707,.F.);
#832=ORIENTED_EDGE('',*,*,#373,.F.);
#833=ORIENTED_EDGE('',*,*,#500,.F.);
#834=EDGE_LOOP('',(#830,#831,#832,#833));
#835=FACE_BOUND('',#834,.T.);
#836=ADVANCED_FACE('',(#835),#829,.T.);
#837=CARTESIAN_POINT('',(71.13304122,-109.288591571,-0.89));
#838=DIRECTION('',(0.,0.,1.));
#839=DIRECTION('',(1.,0.,-0.));
#840=AXIS2_PLACEMENT_3D('',#837,#838,#839);
#841=CYLINDRICAL_SURFACE('',#840,0.5);
#842=ORIENTED_EDGE('',*,*,#796,.F.);
#843=ORIENTED_EDGE('',*,*,#766,.F.);
#844=ORIENTED_EDGE('',*,*,#339,.F.);
#845=ORIENTED_EDGE('',*,*,#651,.F.);
#846=EDGE_LOOP('',(#842,#843,#844,#845));
#847=FACE_BOUND('',#846,.T.);
#848=ADVANCED_FACE('',(#847),#841,.T.);
#849=CARTESIAN_POINT('',(71.13304122,-106.768589571,-1.19));
#850=DIRECTION('',(0.,0.,1.));
#851=DIRECTION('',(1.,0.,-0.));
#852=AXIS2_PLACEMENT_3D('',#849,#850,#851);
#853=CYLINDRICAL_SURFACE('',#852,0.5);
#854=ORIENTED_EDGE('',*,*,#808,.F.);
#855=ORIENTED_EDGE('',*,*,#509,.F.);
#856=ORIENTED_EDGE('',*,*,#356,.F.);
#857=ORIENTED_EDGE('',*,*,#780,.F.);
#858=EDGE_LOOP('',(#854,#855,#856,#857));
#859=FACE_BOUND('',#858,.T.);
#860=ADVANCED_FACE('',(#859),#853,.T.);
#861=CARTESIAN_POINT('',(72.38304122,-108.830012927,-1.69));
#862=DIRECTION('',(0.,0.,-1.));
#863=DIRECTION('',(-1.,0.,0.));
#864=AXIS2_PLACEMENT_3D('',#861,#862,#863);
#865=CYLINDRICAL_SURFACE('',#864,0.158578644);
#866=CARTESIAN_POINT('',(72.224462576,-108.830012927,-0.99));
#867=VERTEX_POINT('',#866);
#868=CARTESIAN_POINT('',(72.224462576,-108.830012927,-0.99));
#869=DIRECTION('',(0.,0.,-1.));
#870=VECTOR('',#869,0.8);
#871=LINE('',#868,#870);
#872=EDGE_CURVE('',#867,#271,#871,.T.);
#873=ORIENTED_EDGE('',*,*,#872,.F.);
#874=CARTESIAN_POINT('',(72.38304122,-108.830012927,-0.831421356));
#875=DIRECTION('',(-0.707106781,0.,0.707106781));
#876=DIRECTION('',(-0.707106781,0.,-0.707106781));
#877=AXIS2_PLACEMENT_3D('',#874,#875,#876);
#878=ELLIPSE('',#877,0.224264069,0.158578644);
#879=EDGE_CURVE('',#867,#173,#878,.T.);
#880=ORIENTED_EDGE('',*,*,#879,.T.);
#881=ORIENTED_EDGE('',*,*,#178,.T.);
#882=ORIENTED_EDGE('',*,*,#285,.T.);
#883=EDGE_LOOP('',(#873,#880,#881,#882));
#884=FACE_BOUND('',#883,.T.);
#885=ADVANCED_FACE('',(#884),#865,.F.);
#886=CARTESIAN_POINT('',(72.224462576,-108.028590571,-1.69));
#887=DIRECTION('',(-1.,0.,0.));
#888=DIRECTION('',(0.,0.,1.));
#889=AXIS2_PLACEMENT_3D('',#886,#887,#888);
#890=PLANE('',#889);
#891=CARTESIAN_POINT('',(72.224462576,-107.227168215,-0.99));
#892=VERTEX_POINT('',#891);
#893=CARTESIAN_POINT('',(72.224462576,-107.227168215,-0.99));
#894=DIRECTION('',(0.,0.,-1.));
#895=VECTOR('',#894,0.8);
#896=LINE('',#893,#895);
#897=EDGE_CURVE('',#892,#273,#896,.T.);
#898=ORIENTED_EDGE('',*,*,#897,.F.);
#899=CARTESIAN_POINT('',(72.224462576,-107.227168215,-0.99));
#900=DIRECTION('',(0.,-1.,0.));
#901=VECTOR('',#900,1.602844712);
#902=LINE('',#899,#901);
#903=EDGE_CURVE('',#892,#867,#902,.T.);
#904=ORIENTED_EDGE('',*,*,#903,.T.);
#905=ORIENTED_EDGE('',*,*,#872,.T.);
#906=ORIENTED_EDGE('',*,*,#278,.T.);
#907=EDGE_LOOP('',(#898,#904,#905,#906));
#908=FACE_BOUND('',#907,.T.);
#909=ADVANCED_FACE('',(#908),#890,.F.);
#910=CARTESIAN_POINT('',(72.38304122,-107.227168215,-1.69));
#911=DIRECTION('',(0.,0.,-1.));
#912=DIRECTION('',(-1.,0.,0.));
#913=AXIS2_PLACEMENT_3D('',#910,#911,#912);
#914=CYLINDRICAL_SURFACE('',#913,0.158578644);
#915=ORIENTED_EDGE('',*,*,#84,.F.);
#916=CARTESIAN_POINT('',(72.38304122,-107.227168215,-0.831421356));
#917=DIRECTION('',(-0.707106781,0.,0.707106781));
#918=DIRECTION('',(-0.707106781,0.,-0.707106781));
#919=AXIS2_PLACEMENT_3D('',#916,#917,#918);
#920=ELLIPSE('',#919,0.224264069,0.158578644);
#921=EDGE_CURVE('',#71,#892,#920,.T.);
#922=ORIENTED_EDGE('',*,*,#921,.T.);
#923=ORIENTED_EDGE('',*,*,#897,.T.);
#924=ORIENTED_EDGE('',*,*,#318,.T.);
#925=EDGE_LOOP('',(#915,#922,#923,#924));
#926=FACE_BOUND('',#925,.T.);
#927=ADVANCED_FACE('',(#926),#914,.F.);
#928=CARTESIAN_POINT('',(89.62303422,-107.227168215,-1.69));
#929=DIRECTION('',(0.,0.,-1.));
#930=DIRECTION('',(-1.,0.,0.));
#931=AXIS2_PLACEMENT_3D('',#928,#929,#930);
#932=CYLINDRICAL_SURFACE('',#931,0.158578644);
#933=CARTESIAN_POINT('',(89.781612863,-107.227168215,-0.99));
#934=VERTEX_POINT('',#933);
#935=CARTESIAN_POINT('',(89.781612863,-107.227168215,-0.99));
#936=DIRECTION('',(0.,0.,-1.));
#937=VECTOR('',#936,0.8);
#938=LINE('',#935,#937);
#939=EDGE_CURVE('',#934,#298,#938,.T.);
#940=ORIENTED_EDGE('',*,*,#939,.F.);
#941=CARTESIAN_POINT('',(89.62303422,-107.227168215,-0.831421356));
#942=DIRECTION('',(0.707106781,0.,0.707106781));
#943=DIRECTION('',(0.707106781,0.,-0.707106781));
#944=AXIS2_PLACEMENT_3D('',#941,#942,#943);
#945=ELLIPSE('',#944,0.224264069,0.158578644);
#946=EDGE_CURVE('',#934,#95,#945,.T.);
#947=ORIENTED_EDGE('',*,*,#946,.T.);
#948=ORIENTED_EDGE('',*,*,#100,.T.);
#949=ORIENTED_EDGE('',*,*,#310,.T.);
#950=EDGE_LOOP('',(#940,#947,#948,#949));
#951=FACE_BOUND('',#950,.T.);
#952=ADVANCED_FACE('',(#951),#932,.F.);
#953=CARTESIAN_POINT('',(89.781612863,-108.028590571,-1.69));
#954=DIRECTION('',(1.,0.,0.));
#955=DIRECTION('',(0.,0.,-1.));
#956=AXIS2_PLACEMENT_3D('',#953,#954,#955);
#957=PLANE('',#956);
#958=CARTESIAN_POINT('',(89.781612863,-108.830012927,-0.99));
#959=VERTEX_POINT('',#958);
#960=CARTESIAN_POINT('',(89.781612863,-108.830012927,-0.99));
#961=DIRECTION('',(0.,0.,-1.));
#962=VECTOR('',#961,0.8);
#963=LINE('',#960,#962);
#964=EDGE_CURVE('',#959,#289,#963,.T.);
#965=ORIENTED_EDGE('',*,*,#964,.F.);
#966=CARTESIAN_POINT('',(89.781612863,-108.830012927,-0.99));
#967=DIRECTION('',(0.,1.,0.));
#968=VECTOR('',#967,1.602844712);
#969=LINE('',#966,#968);
#970=EDGE_CURVE('',#959,#934,#969,.T.);
#971=ORIENTED_EDGE('',*,*,#970,.T.);
#972=ORIENTED_EDGE('',*,*,#939,.T.);
#973=ORIENTED_EDGE('',*,*,#303,.T.);
#974=EDGE_LOOP('',(#965,#971,#972,#973));
#975=FACE_BOUND('',#974,.T.);
#976=ADVANCED_FACE('',(#975),#957,.F.);
#977=CARTESIAN_POINT('',(89.62303422,-108.830012927,-1.69));
#978=DIRECTION('',(0.,0.,-1.));
#979=DIRECTION('',(-1.,0.,0.));
#980=AXIS2_PLACEMENT_3D('',#977,#978,#979);
#981=CYLINDRICAL_SURFACE('',#980,0.158578644);
#982=ORIENTED_EDGE('',*,*,#162,.F.);
#983=CARTESIAN_POINT('',(89.62303422,-108.830012927,-0.831421356));
#984=DIRECTION('',(0.707106781,0.,0.707106781));
#985=DIRECTION('',(0.707106781,0.,-0.707106781));
#986=AXIS2_PLACEMENT_3D('',#983,#984,#985);
#987=ELLIPSE('',#986,0.224264069,0.158578644);
#988=EDGE_CURVE('',#149,#959,#987,.T.);
#989=ORIENTED_EDGE('',*,*,#988,.T.);
#990=ORIENTED_EDGE('',*,*,#964,.T.);
#991=ORIENTED_EDGE('',*,*,#295,.T.);
#992=EDGE_LOOP('',(#982,#989,#990,#991));
#993=FACE_BOUND('',#992,.T.);
#994=ADVANCED_FACE('',(#993),#981,.F.);
#995=CARTESIAN_POINT('',(72.424462576,-103.253739952,-0.79));
#996=DIRECTION('',(-0.707106781,0.,0.707106781));
#997=DIRECTION('',(0.,1.,0.));
#998=AXIS2_PLACEMENT_3D('',#995,#996,#997);
#999=PLANE('',#998);
#1000=ORIENTED_EDGE('',*,*,#903,.F.);
#1001=ORIENTED_EDGE('',*,*,#921,.F.);
#1002=ORIENTED_EDGE('',*,*,#76,.F.);
#1003=ORIENTED_EDGE('',*,*,#122,.F.);
#1004=ORIENTED_EDGE('',*,*,#184,.F.);
#1005=ORIENTED_EDGE('',*,*,#879,.F.);
#1006=EDGE_LOOP('',(#1000,#1001,#1002,#1003,#1004,#1005));
#1007=FACE_BOUND('',#1006,.T.);
#1008=ADVANCED_FACE('',(#1007),#999,.F.);
#1009=CARTESIAN_POINT('',(89.581612863,-103.253739952,-0.79));
#1010=DIRECTION('',(0.707106781,0.,0.707106781));
#1011=DIRECTION('',(0.,-1.,0.));
#1012=AXIS2_PLACEMENT_3D('',#1009,#1010,#1011);
#1013=PLANE('',#1012);
#1014=ORIENTED_EDGE('',*,*,#946,.F.);
#1015=ORIENTED_EDGE('',*,*,#970,.F.);
#1016=ORIENTED_EDGE('',*,*,#988,.F.);
#1017=ORIENTED_EDGE('',*,*,#154,.F.);
#1018=ORIENTED_EDGE('',*,*,#131,.F.);
#1019=ORIENTED_EDGE('',*,*,#106,.F.);
#1020=EDGE_LOOP('',(#1014,#1015,#1016,#1017,#1018,#1019));
#1021=FACE_BOUND('',#1020,.T.);
#1022=ADVANCED_FACE('',(#1021),#1013,.F.);
#1023=CARTESIAN_POINT('',(89.62303422,-109.288591571,0.01));
#1024=DIRECTION('',(0.,0.,-1.));
#1025=DIRECTION('',(-1.,0.,0.));
#1026=AXIS2_PLACEMENT_3D('',#1023,#1024,#1025);
#1027=CONICAL_SURFACE('',#1026,0.5,45.);
#1028=CARTESIAN_POINT('',(89.92303422,-109.288591571,0.21));
#1029=DIRECTION('',(0.707106781,0.,-0.707106781));
#1030=VECTOR('',#1029,0.282842712);
#1031=LINE('',#1028,#1030);
#1032=EDGE_CURVE('',#239,#409,#1031,.T.);
#1033=ORIENTED_EDGE('',*,*,#1032,.F.);
#1034=ORIENTED_EDGE('',*,*,#245,.F.);
#1035=CARTESIAN_POINT('',(89.62303422,-109.788591571,0.01));
#1036=DIRECTION('',(0.,0.707106781,0.707106781));
#1037=VECTOR('',#1036,0.282842712);
#1038=LINE('',#1035,#1037);
#1039=EDGE_CURVE('',#623,#231,#1038,.T.);
#1040=ORIENTED_EDGE('',*,*,#1039,.F.);
#1041=ORIENTED_EDGE('',*,*,#682,.F.);
#1042=EDGE_LOOP('',(#1033,#1034,#1040,#1041));
#1043=FACE_BOUND('',#1042,.T.);
#1044=ADVANCED_FACE('',(#1043),#1027,.T.);
#1045=CARTESIAN_POINT('',(122.125063442,-109.588591571,0.21));
#1046=DIRECTION('',(0.,0.707106781,-0.707106781));
#1047=DIRECTION('',(1.,0.,0.));
#1048=AXIS2_PLACEMENT_3D('',#1045,#1046,#1047);
#1049=PLANE('',#1048);
#1050=ORIENTED_EDGE('',*,*,#1039,.T.);
#1051=ORIENTED_EDGE('',*,*,#236,.F.);
#1052=CARTESIAN_POINT('',(72.38304122,-109.788591571,0.01));
#1053=DIRECTION('',(0.,0.707106781,0.707106781));
#1054=VECTOR('',#1053,0.282842712);
#1055=LINE('',#1052,#1054);
#1056=EDGE_CURVE('',#590,#222,#1055,.T.);
#1057=ORIENTED_EDGE('',*,*,#1056,.F.);
#1058=ORIENTED_EDGE('',*,*,#636,.F.);
#1059=EDGE_LOOP('',(#1050,#1051,#1057,#1058));
#1060=FACE_BOUND('',#1059,.T.);
#1061=ADVANCED_FACE('',(#1060),#1049,.F.);
#1062=CARTESIAN_POINT('',(89.92303422,-103.253739952,0.21));
#1063=DIRECTION('',(-0.707106781,0.,-0.707106781));
#1064=DIRECTION('',(0.,1.,0.));
#1065=AXIS2_PLACEMENT_3D('',#1062,#1063,#1064);
#1066=PLANE('',#1065);
#1067=ORIENTED_EDGE('',*,*,#1032,.T.);
#1068=ORIENTED_EDGE('',*,*,#414,.F.);
#1069=CARTESIAN_POINT('',(89.92303422,-106.768589571,0.21));
#1070=DIRECTION('',(0.707106781,0.,-0.707106781));
#1071=VECTOR('',#1070,0.282842712);
#1072=LINE('',#1069,#1071);
#1073=EDGE_CURVE('',#248,#399,#1072,.T.);
#1074=ORIENTED_EDGE('',*,*,#1073,.F.);
#1075=ORIENTED_EDGE('',*,*,#253,.F.);
#1076=EDGE_LOOP('',(#1067,#1068,#1074,#1075));
#1077=FACE_BOUND('',#1076,.T.);
#1078=ADVANCED_FACE('',(#1077),#1066,.F.);
#1079=CARTESIAN_POINT('',(72.38304122,-109.288591571,0.01));
#1080=DIRECTION('',(0.,0.,-1.));
#1081=DIRECTION('',(-1.,0.,0.));
#1082=AXIS2_PLACEMENT_3D('',#1079,#1080,#1081);
#1083=CONICAL_SURFACE('',#1082,0.5,45.);
#1084=ORIENTED_EDGE('',*,*,#1056,.T.);
#1085=ORIENTED_EDGE('',*,*,#228,.F.);
#1086=CARTESIAN_POINT('',(71.88304122,-109.288591571,0.01));
#1087=DIRECTION('',(0.707106781,0.,0.707106781));
#1088=VECTOR('',#1087,0.282842712);
#1089=LINE('',#1086,#1088);
#1090=EDGE_CURVE('',#559,#214,#1089,.T.);
#1091=ORIENTED_EDGE('',*,*,#1090,.F.);
#1092=ORIENTED_EDGE('',*,*,#604,.F.);
#1093=EDGE_LOOP('',(#1084,#1085,#1091,#1092));
#1094=FACE_BOUND('',#1093,.T.);
#1095=ADVANCED_FACE('',(#1094),#1083,.T.);
#1096=CARTESIAN_POINT('',(89.62303422,-106.768589571,0.01));
#1097=DIRECTION('',(0.,0.,-1.));
#1098=DIRECTION('',(-1.,0.,0.));
#1099=AXIS2_PLACEMENT_3D('',#1096,#1097,#1098);
#1100=CONICAL_SURFACE('',#1099,0.5,45.);
#1101=ORIENTED_EDGE('',*,*,#1073,.T.);
#1102=ORIENTED_EDGE('',*,*,#453,.F.);
#1103=CARTESIAN_POINT('',(89.62303422,-106.468589571,0.21));
#1104=DIRECTION('',(0.,0.707106781,-0.707106781));
#1105=VECTOR('',#1104,0.282842712);
#1106=LINE('',#1103,#1105);
#1107=EDGE_CURVE('',#195,#439,#1106,.T.);
#1108=ORIENTED_EDGE('',*,*,#1107,.F.);
#1109=ORIENTED_EDGE('',*,*,#260,.F.);
#1110=EDGE_LOOP('',(#1101,#1102,#1108,#1109));
#1111=FACE_BOUND('',#1110,.T.);
#1112=ADVANCED_FACE('',(#1111),#1100,.T.);
#1113=CARTESIAN_POINT('',(72.08304122,-103.253739952,0.21));
#1114=DIRECTION('',(0.707106781,0.,-0.707106781));
#1115=DIRECTION('',(0.,-1.,0.));
#1116=AXIS2_PLACEMENT_3D('',#1113,#1114,#1115);
#1117=PLANE('',#1116);
#1118=ORIENTED_EDGE('',*,*,#1090,.T.);
#1119=ORIENTED_EDGE('',*,*,#219,.F.);
#1120=CARTESIAN_POINT('',(71.88304122,-106.768589571,0.01));
#1121=DIRECTION('',(0.707106781,0.,0.707106781));
#1122=VECTOR('',#1121,0.282842712);
#1123=LINE('',#1120,#1122);
#1124=EDGE_CURVE('',#526,#205,#1123,.T.);
#1125=ORIENTED_EDGE('',*,*,#1124,.F.);
#1126=ORIENTED_EDGE('',*,*,#572,.F.);
#1127=EDGE_LOOP('',(#1118,#1119,#1125,#1126));
#1128=FACE_BOUND('',#1127,.T.);
#1129=ADVANCED_FACE('',(#1128),#1117,.F.);
#1130=CARTESIAN_POINT('',(122.125063442,-106.468589571,0.21));
#1131=DIRECTION('',(0.,-0.707106781,-0.707106781));
#1132=DIRECTION('',(-1.,0.,0.));
#1133=AXIS2_PLACEMENT_3D('',#1130,#1131,#1132);
#1134=PLANE('',#1133);
#1135=ORIENTED_EDGE('',*,*,#1107,.T.);
#1136=ORIENTED_EDGE('',*,*,#485,.F.);
#1137=CARTESIAN_POINT('',(72.38304122,-106.468589571,0.21));
#1138=DIRECTION('',(0.,0.707106781,-0.707106781));
#1139=VECTOR('',#1138,0.282842712);
#1140=LINE('',#1137,#1139);
#1141=EDGE_CURVE('',#197,#472,#1140,.T.);
#1142=ORIENTED_EDGE('',*,*,#1141,.F.);
#1143=ORIENTED_EDGE('',*,*,#202,.F.);
#1144=EDGE_LOOP('',(#1135,#1136,#1142,#1143));
#1145=FACE_BOUND('',#1144,.T.);
#1146=ADVANCED_FACE('',(#1145),#1134,.F.);
#1147=CARTESIAN_POINT('',(72.38304122,-106.768589571,0.01));
#1148=DIRECTION('',(0.,0.,-1.));
#1149=DIRECTION('',(-1.,0.,0.));
#1150=AXIS2_PLACEMENT_3D('',#1147,#1148,#1149);
#1151=CONICAL_SURFACE('',#1150,0.5,45.);
#1152=ORIENTED_EDGE('',*,*,#1124,.T.);
#1153=ORIENTED_EDGE('',*,*,#211,.F.);
#1154=ORIENTED_EDGE('',*,*,#1141,.T.);
#1155=ORIENTED_EDGE('',*,*,#540,.F.);
#1156=EDGE_LOOP('',(#1152,#1153,#1154,#1155));
#1157=FACE_BOUND('',#1156,.T.);
#1158=ADVANCED_FACE('',(#1157),#1151,.T.);
#1159=CLOSED_SHELL('',(#110,#141,#188,#264,#392,#432,#465,#519,#552,#583,#616,#670,#694,#725,#753,#784,#812,#824,#836,#848,#860,#885,#909,#927,#952,#976,
#994,#1008,#1022,#1044,#1061,#1078,#1095,#1112,#1129,#1146,#1158));
#1160=MANIFOLD_SOLID_BREP('L LED Diffuser',#1159);
#1161=COLOUR_RGB('',0.827450991,0.827450991,0.827450991);
#1162=FILL_AREA_STYLE_COLOUR('',#1161);
#1163=FILL_AREA_STYLE('',(#1162));
#1164=SURFACE_STYLE_FILL_AREA(#1163);
#1165=SURFACE_SIDE_STYLE('',(#1164));
#1166=SURFACE_STYLE_USAGE(.BOTH.,#1165);
#1167=PRESENTATION_STYLE_ASSIGNMENT((#1166));
#54=STYLED_ITEM('',(#1167),#1160);
#35=SHAPE_REPRESENTATION('Left',(#15),#33);
#36=ADVANCED_BREP_SHAPE_REPRESENTATION('Left',(#1160),#33);
#1175=SHAPE_REPRESENTATION_RELATIONSHIP('','',#35,#36);
#1176=CARTESIAN_POINT('',(0.,0.,0.));
#1177=DIRECTION('',(0.,0.,1.));
#1178=DIRECTION('',(1.,0.,0.));
#1179=AXIS2_PLACEMENT_3D('',#1176,#1177,#1178);
#1181=MAPPED_ITEM('',#1180,#1179);
#1180=REPRESENTATION_MAP(#1179,#35);
#1182=APPLICATION_CONTEXT('Managed model based 3d engineering');
#1183=APPLICATION_PROTOCOL_DEFINITION('international standard','ap242_managed_model_based_3d_engineering',2014,#1182);
#1184=PRODUCT_CONTEXT('',#1182,'mechanical');
#1185=PRODUCT_DEFINITION_CONTEXT('part definition',#1182,'design');
#43=PRODUCT('Left','Left','',(#1184));
#1186=PRODUCT_RELATED_PRODUCT_CATEGORY('part','',(#43));
#1187=PRODUCT_DEFINITION_FORMATION_WITH_SPECIFIED_SOURCE('','',#43,.NOT_KNOWN.);
#44=PRODUCT_DEFINITION('design','',#1187,#1185);
#42=PRODUCT_DEFINITION_SHAPE('','',#44);
#1188=SHAPE_DEFINITION_REPRESENTATION(#42,#35);
#34=DRAUGHTING_MODEL('',(#1181),#33);
#16=SHAPE_REPRESENTATION('root',(#15,#48),#10);
#1189=CARTESIAN_POINT('',(0.,0.,0.));
#1190=DIRECTION('',(0.,0.,1.));
#1191=DIRECTION('',(1.,0.,0.));
#1192=AXIS2_PLACEMENT_3D('',#1189,#1190,#1191);
#1194=MAPPED_ITEM('',#1193,#1192);
#1193=REPRESENTATION_MAP(#1192,#16);
#24=PRODUCT('root','root','',(#1184));
#1195=PRODUCT_RELATED_PRODUCT_CATEGORY('part','',(#24));
#1196=PRODUCT_DEFINITION_FORMATION_WITH_SPECIFIED_SOURCE('','',#24,.NOT_KNOWN.);
#25=PRODUCT_DEFINITION('design','',#1196,#1185);
#23=PRODUCT_DEFINITION_SHAPE('','',#25);
#1197=SHAPE_DEFINITION_REPRESENTATION(#23,#16);
#11=DRAUGHTING_MODEL('',(#1194),#10);
#1198=DESCRIPTIVE_REPRESENTATION_ITEM('KEY','/Users/will/Library/Containers/com.shapr3d.shapr/Data/tmp/3584ED8D-BCDD-486F-AB4F-515CF6BAAA40.tmp');
#1199=PROPERTY_DEFINITION('KEY','',#25);
#1200=REPRESENTATION('',(#1198),#10);
#1201=PROPERTY_DEFINITION_REPRESENTATION(#1199,#1200);
#1202=GENERAL_PROPERTY('','KEY','');
#1203=GENERAL_PROPERTY_ASSOCIATION('','',#1202,#1199);
#1=MECHANICAL_DESIGN_GEOMETRIC_PRESENTATION_REPRESENTATION('',(#54),#10);
ENDSEC;
END-ISO-10303-21;
