ISO-10303-21;
HEADER;

/* File generated by Shapr3D Version 26.121.0.11316 */

FILE_DESCRIPTION(('HOOPS Exchange Step'),'2;1');

FILE_NAME('/Users/will/Library/Containers/com.shapr3d.shapr/Data/tmp/export/temp_export',
'2026-08-25T12:30:23-03:00',
('will'),
('Shapr3D Limited'),
'HOOPS Exchange 2026.3',
'Shapr3D',
'Authorized');

FILE_SCHEMA( ('AP242_MANAGED_MODEL_BASED_3D_ENGINEERING_MIM_LF {1 0 10303 442 1 1 4}') );

ENDSEC;

DATA;
#3=(NAMED_UNIT(*)PLANE_ANGLE_UNIT()SI_UNIT($,.RADIAN.));
#4=PLANE_ANGLE_MEASURE_WITH_UNIT(PLANE_ANGLE_MEASURE(0.0174532925),#3);
#5=(CONVERSION_BASED_UNIT('DEGREE',#4)NAMED_UNIT(#6)PLANE_ANGLE_UNIT());
#6=DIMENSIONAL_EXPONENTS(0.,0.,0.,0.,0.,0.,0.);
#7=(NAMED_UNIT(*)SI_UNIT($,.STERADIAN.)SOLID_ANGLE_UNIT());
#8=(LENGTH_UNIT()NAMED_UNIT(*)SI_UNIT(.MILLI.,.METRE.));
#9=UNCERTAINTY_MEASURE_WITH_UNIT(LENGTH_MEASURE(1.000000E-03),#8,'DISTANCE_ACCURACY_VALUE','Maximum Tolerance applied to model');
#10=(GEOMETRIC_REPRESENTATION_CONTEXT(3)GLOBAL_UNCERTAINTY_ASSIGNED_CONTEXT((#9))GLOBAL_UNIT_ASSIGNED_CONTEXT((#8,#5,#7))REPRESENTATION_CONTEXT('','root'));
#12=CARTESIAN_POINT('',(0.,0.,0.));
#13=DIRECTION('',(0.,0.,1.));
#14=DIRECTION('',(1.,0.,0.));
#15=AXIS2_PLACEMENT_3D('TS3D_PRODUCT_CSYS',#12,#13,#14);
#26=(NAMED_UNIT(*)PLANE_ANGLE_UNIT()SI_UNIT($,.RADIAN.));
#27=PLANE_ANGLE_MEASURE_WITH_UNIT(PLANE_ANGLE_MEASURE(0.0174532925),#26);
#28=(CONVERSION_BASED_UNIT('DEGREE',#27)NAMED_UNIT(#29)PLANE_ANGLE_UNIT());
#29=DIMENSIONAL_EXPONENTS(0.,0.,0.,0.,0.,0.,0.);
#30=(NAMED_UNIT(*)SI_UNIT($,.STERADIAN.)SOLID_ANGLE_UNIT());
#31=(LENGTH_UNIT()NAMED_UNIT(*)SI_UNIT(.MILLI.,.METRE.));
#32=UNCERTAINTY_MEASURE_WITH_UNIT(LENGTH_MEASURE(1.000000E-05),#31,'DISTANCE_ACCURACY_VALUE','Maximum Tolerance applied to model');
#33=(GEOMETRIC_REPRESENTATION_CONTEXT(3)GLOBAL_UNCERTAINTY_ASSIGNED_CONTEXT((#32))GLOBAL_UNIT_ASSIGNED_CONTEXT((#31,#28,#30))REPRESENTATION_CONTEXT('','Left'));
#45=CARTESIAN_POINT('',(0.,0.,0.));
#46=DIRECTION('',(0.,0.,1.));
#47=DIRECTION('',(1.,0.,-0.));
#48=AXIS2_PLACEMENT_3D('',#45,#46,#47);
#49=ITEM_DEFINED_TRANSFORMATION('','',#48,#15);
#50=(REPRESENTATION_RELATIONSHIP('','',#35,#16)REPRESENTATION_RELATIONSHIP_WITH_TRANSFORMATION(#49)SHAPE_REPRESENTATION_RELATIONSHIP());
#51=NEXT_ASSEMBLY_USAGE_OCCURRENCE('Left_1','Left','Left',#25,#44,$);
#52=PRODUCT_DEFINITION_SHAPE('','',#51);
#53=CONTEXT_DEPENDENT_SHAPE_REPRESENTATION(#50,#52);
#55=CARTESIAN_POINT('',(186.275230491,-101.0075,-4.248920861));
#56=DIRECTION('',(0.000000002,-0.,1.));
#57=DIRECTION('',(1.,0.,-0.000000002));
#58=AXIS2_PLACEMENT_3D('',#55,#56,#57);
#59=PLANE('',#58);
#60=CARTESIAN_POINT('',(187.675230509,-97.5175,-4.248920864));
#61=VERTEX_POINT('',#60);
#62=CARTESIAN_POINT('',(187.675230509,-100.3075,-4.248920864));
#63=VERTEX_POINT('',#62);
#64=CARTESIAN_POINT('',(187.675230509,-97.5175,-4.248920864));
#65=DIRECTION('',(-0.,-1.,-0.));
#66=VECTOR('',#65,2.79);
#67=LINE('',#64,#66);
#68=EDGE_CURVE('',#61,#63,#67,.T.);
#69=ORIENTED_EDGE('',*,*,#68,.T.);
#70=CARTESIAN_POINT('',(186.915230509,-100.3075,-4.248920862));
#71=VERTEX_POINT('',#70);
#72=CARTESIAN_POINT('',(187.675230509,-100.3075,-4.248920864));
#73=DIRECTION('',(-1.,-0.,0.000000002));
#74=VECTOR('',#73,0.76);
#75=LINE('',#72,#74);
#76=EDGE_CURVE('',#63,#71,#75,.T.);
#77=ORIENTED_EDGE('',*,*,#76,.T.);
#78=CARTESIAN_POINT('',(186.915230509,-99.1175,-4.248920862));
#79=VERTEX_POINT('',#78);
#80=CARTESIAN_POINT('',(186.915230509,-100.3075,-4.248920862));
#81=DIRECTION('',(0.,1.,0.));
#82=VECTOR('',#81,1.19);
#83=LINE('',#80,#82);
#84=EDGE_CURVE('',#71,#79,#83,.T.);
#85=ORIENTED_EDGE('',*,*,#84,.T.);
#86=CARTESIAN_POINT('',(186.865230509,-99.0675,-4.248920862));
#87=VERTEX_POINT('',#86);
#88=CARTESIAN_POINT('',(186.865230509,-99.1175,-4.248920862));
#89=DIRECTION('',(0.000000002,-0.,1.));
#90=DIRECTION('',(1.,0.,-0.000000002));
#91=AXIS2_PLACEMENT_3D('',#88,#89,#90);
#92=CIRCLE('',#91,0.05);
#93=EDGE_CURVE('',#79,#87,#92,.T.);
#94=ORIENTED_EDGE('',*,*,#93,.T.);
#95=CARTESIAN_POINT('',(185.385230509,-99.0675,-4.248920859));
#96=VERTEX_POINT('',#95);
#97=CARTESIAN_POINT('',(185.385230509,-99.0675,-4.248920859));
#98=DIRECTION('',(1.,-0.,-0.000000002));
#99=VECTOR('',#98,1.48);
#100=LINE('',#97,#99);
#101=EDGE_CURVE('',#96,#87,#100,.T.);
#102=ORIENTED_EDGE('',*,*,#101,.F.);
#103=CARTESIAN_POINT('',(185.335230509,-99.1175,-4.248920859));
#104=VERTEX_POINT('',#103);
#105=CARTESIAN_POINT('',(185.385230509,-99.1175,-4.248920859));
#106=DIRECTION('',(0.000000002,-0.,1.));
#107=DIRECTION('',(1.,0.,-0.000000002));
#108=AXIS2_PLACEMENT_3D('',#105,#106,#107);
#109=CIRCLE('',#108,0.05);
#110=EDGE_CURVE('',#96,#104,#109,.T.);
#111=ORIENTED_EDGE('',*,*,#110,.T.);
#112=CARTESIAN_POINT('',(185.335230509,-100.3075,-4.248920859));
#113=VERTEX_POINT('',#112);
#114=CARTESIAN_POINT('',(185.335230509,-100.3075,-4.248920859));
#115=DIRECTION('',(0.,1.,0.));
#116=VECTOR('',#115,1.19);
#117=LINE('',#114,#116);
#118=EDGE_CURVE('',#113,#104,#117,.T.);
#119=ORIENTED_EDGE('',*,*,#118,.F.);
#120=CARTESIAN_POINT('',(184.575230509,-100.3075,-4.248920858));
#121=VERTEX_POINT('',#120);
#122=CARTESIAN_POINT('',(185.335230509,-100.3075,-4.248920859));
#123=DIRECTION('',(-1.,0.,0.000000002));
#124=VECTOR('',#123,0.76);
#125=LINE('',#122,#124);
#126=EDGE_CURVE('',#113,#121,#125,.T.);
#127=ORIENTED_EDGE('',*,*,#126,.T.);
#128=CARTESIAN_POINT('',(184.575230509,-97.5175,-4.248920858));
#129=VERTEX_POINT('',#128);
#130=CARTESIAN_POINT('',(184.575230509,-100.3075,-4.248920858));
#131=DIRECTION('',(0.,1.,0.));
#132=VECTOR('',#131,2.79);
#133=LINE('',#130,#132);
#134=EDGE_CURVE('',#121,#129,#133,.T.);
#135=ORIENTED_EDGE('',*,*,#134,.T.);
#136=CARTESIAN_POINT('',(185.035230509,-97.0575,-4.248920858));
#137=VERTEX_POINT('',#136);
#138=CARTESIAN_POINT('',(185.035230509,-97.5175,-4.248920858));
#139=DIRECTION('',(-0.000000002,0.,-1.));
#140=DIRECTION('',(1.,0.,-0.000000002));
#141=AXIS2_PLACEMENT_3D('',#138,#139,#140);
#142=CIRCLE('',#141,0.46);
#143=EDGE_CURVE('',#129,#137,#142,.T.);
#144=ORIENTED_EDGE('',*,*,#143,.T.);
#145=CARTESIAN_POINT('',(187.215230509,-97.0575,-4.248920863));
#146=VERTEX_POINT('',#145);
#147=CARTESIAN_POINT('',(185.035230509,-97.0575,-4.248920858));
#148=DIRECTION('',(1.,-0.,-0.000000002));
#149=VECTOR('',#148,2.18);
#150=LINE('',#147,#149);
#151=EDGE_CURVE('',#137,#146,#150,.T.);
#152=ORIENTED_EDGE('',*,*,#151,.T.);
#153=CARTESIAN_POINT('',(187.215230509,-97.5175,-4.248920863));
#154=DIRECTION('',(-0.000000002,0.,-1.));
#155=DIRECTION('',(1.,0.,-0.000000002));
#156=AXIS2_PLACEMENT_3D('',#153,#154,#155);
#157=CIRCLE('',#156,0.46);
#158=EDGE_CURVE('',#146,#61,#157,.T.);
#159=ORIENTED_EDGE('',*,*,#158,.T.);
#160=EDGE_LOOP('',(#69,#77,#85,#94,#102,#111,#119,#127,#135,#144,#152,#159));
#161=FACE_BOUND('',#160,.T.);
#162=ADVANCED_FACE('',(#161),#59,.F.);
#163=CARTESIAN_POINT('',(186.360833419,-101.1075,-3.498451633));
#164=DIRECTION('',(0.,1.,0.));
#165=DIRECTION('',(-1.,0.,0.));
#166=AXIS2_PLACEMENT_3D('',#163,#164,#165);
#167=PLANE('',#166);
#168=CARTESIAN_POINT('',(190.915230508,-101.1075,-4.74892087));
#169=VERTEX_POINT('',#168);
#170=CARTESIAN_POINT('',(186.915230508,-101.1075,-4.748920862));
#171=VERTEX_POINT('',#170);
#172=CARTESIAN_POINT('',(190.915230508,-101.1075,-4.74892087));
#173=DIRECTION('',(-1.,-0.,0.000000002));
#174=VECTOR('',#173,4.);
#175=LINE('',#172,#174);
#176=EDGE_CURVE('',#169,#171,#175,.T.);
#177=ORIENTED_EDGE('',*,*,#176,.F.);
#178=CARTESIAN_POINT('',(191.415230509,-101.1075,-4.24892087));
#179=VERTEX_POINT('',#178);
#180=CARTESIAN_POINT('',(190.915230509,-101.1075,-4.24892087));
#181=DIRECTION('',(-0.,-1.,-0.));
#182=DIRECTION('',(-1.,0.,0.));
#183=AXIS2_PLACEMENT_3D('',#180,#181,#182);
#184=CIRCLE('',#183,0.5);
#185=EDGE_CURVE('',#169,#179,#184,.T.);
#186=ORIENTED_EDGE('',*,*,#185,.T.);
#187=CARTESIAN_POINT('',(191.415230509,-101.1075,-2.748920862));
#188=VERTEX_POINT('',#187);
#189=CARTESIAN_POINT('',(191.415230509,-101.1075,-2.748920862));
#190=DIRECTION('',(0.,0.,-1.));
#191=VECTOR('',#190,1.500000008);
#192=LINE('',#189,#191);
#193=EDGE_CURVE('',#188,#179,#192,.T.);
#194=ORIENTED_EDGE('',*,*,#193,.F.);
#195=CARTESIAN_POINT('',(190.915230509,-101.1075,-2.248920862));
#196=VERTEX_POINT('',#195);
#197=CARTESIAN_POINT('',(190.915230509,-101.1075,-2.748920862));
#198=DIRECTION('',(-0.,-1.,-0.));
#199=DIRECTION('',(-1.,0.,0.));
#200=AXIS2_PLACEMENT_3D('',#197,#198,#199);
#201=CIRCLE('',#200,0.5);
#202=EDGE_CURVE('',#188,#196,#201,.T.);
#203=ORIENTED_EDGE('',*,*,#202,.T.);
#204=CARTESIAN_POINT('',(181.335230509,-101.1075,-2.248920861));
#205=VERTEX_POINT('',#204);
#206=CARTESIAN_POINT('',(181.335230509,-101.1075,-2.248920861));
#207=DIRECTION('',(1.,-0.,-0.));
#208=VECTOR('',#207,9.58);
#209=LINE('',#206,#208);
#210=EDGE_CURVE('',#205,#196,#209,.T.);
#211=ORIENTED_EDGE('',*,*,#210,.F.);
#212=CARTESIAN_POINT('',(180.835230509,-101.1075,-2.748920861));
#213=VERTEX_POINT('',#212);
#214=CARTESIAN_POINT('',(181.335230509,-101.1075,-2.748920861));
#215=DIRECTION('',(-0.,-1.,-0.));
#216=DIRECTION('',(-1.,0.,0.));
#217=AXIS2_PLACEMENT_3D('',#214,#215,#216);
#218=CIRCLE('',#217,0.5);
#219=EDGE_CURVE('',#205,#213,#218,.T.);
#220=ORIENTED_EDGE('',*,*,#219,.T.);
#221=CARTESIAN_POINT('',(180.835230508,-101.1075,-4.24892085));
#222=VERTEX_POINT('',#221);
#223=CARTESIAN_POINT('',(180.835230509,-101.1075,-2.748920861));
#224=DIRECTION('',(0.,0.,-1.));
#225=VECTOR('',#224,1.499999989);
#226=LINE('',#223,#225);
#227=EDGE_CURVE('',#213,#222,#226,.T.);
#228=ORIENTED_EDGE('',*,*,#227,.T.);
#229=CARTESIAN_POINT('',(181.335230507,-101.1075,-4.748920851));
#230=VERTEX_POINT('',#229);
#231=CARTESIAN_POINT('',(181.335230508,-101.1075,-4.248920851));
#232=DIRECTION('',(-0.,-1.,-0.));
#233=DIRECTION('',(-1.,0.,0.));
#234=AXIS2_PLACEMENT_3D('',#231,#232,#233);
#235=CIRCLE('',#234,0.5);
#236=EDGE_CURVE('',#222,#230,#235,.T.);
#237=ORIENTED_EDGE('',*,*,#236,.T.);
#238=CARTESIAN_POINT('',(185.335230508,-101.1075,-4.748920859));
#239=VERTEX_POINT('',#238);
#240=CARTESIAN_POINT('',(185.335230508,-101.1075,-4.748920859));
#241=DIRECTION('',(-1.,0.,0.000000002));
#242=VECTOR('',#241,4.000000001);
#243=LINE('',#240,#242);
#244=EDGE_CURVE('',#239,#230,#243,.T.);
#245=ORIENTED_EDGE('',*,*,#244,.F.);
#246=CARTESIAN_POINT('',(185.335230509,-101.1075,-3.108920861));
#247=VERTEX_POINT('',#246);
#248=CARTESIAN_POINT('',(185.335230509,-101.1075,-4.748920859));
#249=DIRECTION('',(-0.,-0.,1.));
#250=VECTOR('',#249,1.639999998);
#251=LINE('',#248,#250);
#252=EDGE_CURVE('',#239,#247,#251,.T.);
#253=ORIENTED_EDGE('',*,*,#252,.T.);
#254=CARTESIAN_POINT('',(186.915230509,-101.1075,-3.108920861));
#255=VERTEX_POINT('',#254);
#256=CARTESIAN_POINT('',(186.915230509,-101.1075,-3.108920861));
#257=DIRECTION('',(-1.,0.,0.));
#258=VECTOR('',#257,1.58);
#259=LINE('',#256,#258);
#260=EDGE_CURVE('',#255,#247,#259,.T.);
#261=ORIENTED_EDGE('',*,*,#260,.F.);
#262=CARTESIAN_POINT('',(186.915230509,-101.1075,-3.108920861));
#263=DIRECTION('',(0.,0.,-1.));
#264=VECTOR('',#263,1.640000001);
#265=LINE('',#262,#264);
#266=EDGE_CURVE('',#255,#171,#265,.T.);
#267=ORIENTED_EDGE('',*,*,#266,.T.);
#268=EDGE_LOOP('',(#177,#186,#194,#203,#211,#220,#228,#237,#245,#253,#261,#267));
#269=FACE_BOUND('',#268,.T.);
#270=ADVANCED_FACE('',(#269),#167,.F.);
#271=CARTESIAN_POINT('',(186.360833419,-100.3075,-3.498451633));
#272=DIRECTION('',(0.,1.,0.));
#273=DIRECTION('',(-1.,0.,0.));
#274=AXIS2_PLACEMENT_3D('',#271,#272,#273);
#275=PLANE('',#274);
#276=CARTESIAN_POINT('',(191.415230509,-100.3075,-2.748920862));
#277=VERTEX_POINT('',#276);
#278=CARTESIAN_POINT('',(191.415230509,-100.3075,-4.24892087));
#279=VERTEX_POINT('',#278);
#280=CARTESIAN_POINT('',(191.415230509,-100.3075,-2.748920862));
#281=DIRECTION('',(0.,0.,-1.));
#282=VECTOR('',#281,1.500000008);
#283=LINE('',#280,#282);
#284=EDGE_CURVE('',#277,#279,#283,.T.);
#285=ORIENTED_EDGE('',*,*,#284,.T.);
#286=CARTESIAN_POINT('',(190.915230508,-100.3075,-4.74892087));
#287=VERTEX_POINT('',#286);
#288=CARTESIAN_POINT('',(190.915230509,-100.3075,-4.24892087));
#289=DIRECTION('',(0.,1.,0.));
#290=DIRECTION('',(-1.,0.,0.));
#291=AXIS2_PLACEMENT_3D('',#288,#289,#290);
#292=CIRCLE('',#291,0.5);
#293=EDGE_CURVE('',#279,#287,#292,.T.);
#294=ORIENTED_EDGE('',*,*,#293,.T.);
#295=CARTESIAN_POINT('',(186.915230508,-100.3075,-4.748920862));
#296=VERTEX_POINT('',#295);
#297=CARTESIAN_POINT('',(190.915230508,-100.3075,-4.74892087));
#298=DIRECTION('',(-1.,-0.,0.000000002));
#299=VECTOR('',#298,4.);
#300=LINE('',#297,#299);
#301=EDGE_CURVE('',#287,#296,#300,.T.);
#302=ORIENTED_EDGE('',*,*,#301,.T.);
#303=CARTESIAN_POINT('',(186.915230508,-100.3075,-4.748920862));
#304=DIRECTION('',(0.000000002,-0.,1.));
#305=VECTOR('',#304,0.5);
#306=LINE('',#303,#305);
#307=EDGE_CURVE('',#296,#71,#306,.T.);
#308=ORIENTED_EDGE('',*,*,#307,.T.);
#309=ORIENTED_EDGE('',*,*,#76,.F.);
#310=CARTESIAN_POINT('',(187.715230509,-100.3075,-4.208920864));
#311=VERTEX_POINT('',#310);
#312=CARTESIAN_POINT('',(187.675230509,-100.3075,-4.208920864));
#313=DIRECTION('',(-0.,-1.,-0.));
#314=DIRECTION('',(-1.,0.,0.));
#315=AXIS2_PLACEMENT_3D('',#312,#313,#314);
#316=CIRCLE('',#315,0.04);
#317=EDGE_CURVE('',#63,#311,#316,.T.);
#318=ORIENTED_EDGE('',*,*,#317,.T.);
#319=CARTESIAN_POINT('',(187.715230509,-100.3075,-3.188920867));
#320=VERTEX_POINT('',#319);
#321=CARTESIAN_POINT('',(187.715230509,-100.3075,-3.188920867));
#322=DIRECTION('',(0.,0.,-1.));
#323=VECTOR('',#322,1.019999997);
#324=LINE('',#321,#323);
#325=EDGE_CURVE('',#320,#311,#324,.T.);
#326=ORIENTED_EDGE('',*,*,#325,.F.);
#327=CARTESIAN_POINT('',(187.675230509,-100.3075,-3.148920866));
#328=VERTEX_POINT('',#327);
#329=CARTESIAN_POINT('',(187.675230509,-100.3075,-3.188920867));
#330=DIRECTION('',(-0.,-1.,-0.));
#331=DIRECTION('',(-1.,0.,0.));
#332=AXIS2_PLACEMENT_3D('',#329,#330,#331);
#333=CIRCLE('',#332,0.04);
#334=EDGE_CURVE('',#320,#328,#333,.T.);
#335=ORIENTED_EDGE('',*,*,#334,.T.);
#336=CARTESIAN_POINT('',(186.915230509,-100.3075,-3.148920866));
#337=VERTEX_POINT('',#336);
#338=CARTESIAN_POINT('',(187.675230509,-100.3075,-3.148920866));
#339=DIRECTION('',(-1.,0.,0.));
#340=VECTOR('',#339,0.76);
#341=LINE('',#338,#340);
#342=EDGE_CURVE('',#328,#337,#341,.T.);
#343=ORIENTED_EDGE('',*,*,#342,.T.);
#344=CARTESIAN_POINT('',(186.915230509,-100.3075,-3.108920861));
#345=VERTEX_POINT('',#344);
#346=CARTESIAN_POINT('',(186.915230509,-100.3075,-3.148920866));
#347=DIRECTION('',(-0.,-0.,1.));
#348=VECTOR('',#347,0.040000005);
#349=LINE('',#346,#348);
#350=EDGE_CURVE('',#337,#345,#349,.T.);
#351=ORIENTED_EDGE('',*,*,#350,.T.);
#352=CARTESIAN_POINT('',(185.335230509,-100.3075,-3.108920861));
#353=VERTEX_POINT('',#352);
#354=CARTESIAN_POINT('',(186.915230509,-100.3075,-3.108920861));
#355=DIRECTION('',(-1.,0.,0.));
#356=VECTOR('',#355,1.58);
#357=LINE('',#354,#356);
#358=EDGE_CURVE('',#345,#353,#357,.T.);
#359=ORIENTED_EDGE('',*,*,#358,.T.);
#360=CARTESIAN_POINT('',(185.335230509,-100.3075,-3.148920866));
#361=VERTEX_POINT('',#360);
#362=CARTESIAN_POINT('',(185.335230509,-100.3075,-3.148920866));
#363=DIRECTION('',(-0.,-0.,1.));
#364=VECTOR('',#363,0.040000005);
#365=LINE('',#362,#364);
#366=EDGE_CURVE('',#361,#353,#365,.T.);
#367=ORIENTED_EDGE('',*,*,#366,.F.);
#368=CARTESIAN_POINT('',(184.575230509,-100.3075,-3.148920866));
#369=VERTEX_POINT('',#368);
#370=CARTESIAN_POINT('',(184.575230509,-100.3075,-3.148920866));
#371=DIRECTION('',(1.,-0.,-0.));
#372=VECTOR('',#371,0.76);
#373=LINE('',#370,#372);
#374=EDGE_CURVE('',#369,#361,#373,.T.);
#375=ORIENTED_EDGE('',*,*,#374,.F.);
#376=CARTESIAN_POINT('',(184.535230509,-100.3075,-3.188920866));
#377=VERTEX_POINT('',#376);
#378=CARTESIAN_POINT('',(184.575230509,-100.3075,-3.188920866));
#379=DIRECTION('',(-0.,-1.,-0.));
#380=DIRECTION('',(-1.,0.,0.));
#381=AXIS2_PLACEMENT_3D('',#378,#379,#380);
#382=CIRCLE('',#381,0.04);
#383=EDGE_CURVE('',#369,#377,#382,.T.);
#384=ORIENTED_EDGE('',*,*,#383,.T.);
#385=CARTESIAN_POINT('',(184.535230509,-100.3075,-4.208920858));
#386=VERTEX_POINT('',#385);
#387=CARTESIAN_POINT('',(184.535230509,-100.3075,-3.188920866));
#388=DIRECTION('',(0.,0.,-1.));
#389=VECTOR('',#388,1.019999992);
#390=LINE('',#387,#389);
#391=EDGE_CURVE('',#377,#386,#390,.T.);
#392=ORIENTED_EDGE('',*,*,#391,.T.);
#393=CARTESIAN_POINT('',(184.575230509,-100.3075,-4.208920858));
#394=DIRECTION('',(-0.,-1.,-0.));
#395=DIRECTION('',(-1.,0.,0.));
#396=AXIS2_PLACEMENT_3D('',#393,#394,#395);
#397=CIRCLE('',#396,0.04);
#398=EDGE_CURVE('',#386,#121,#397,.T.);
#399=ORIENTED_EDGE('',*,*,#398,.T.);
#400=ORIENTED_EDGE('',*,*,#126,.F.);
#401=CARTESIAN_POINT('',(185.335230508,-100.3075,-4.748920859));
#402=VERTEX_POINT('',#401);
#403=CARTESIAN_POINT('',(185.335230508,-100.3075,-4.748920859));
#404=DIRECTION('',(0.000000002,-0.,1.));
#405=VECTOR('',#404,0.5);
#406=LINE('',#403,#405);
#407=EDGE_CURVE('',#402,#113,#406,.T.);
#408=ORIENTED_EDGE('',*,*,#407,.F.);
#409=CARTESIAN_POINT('',(181.335230507,-100.3075,-4.748920851));
#410=VERTEX_POINT('',#409);
#411=CARTESIAN_POINT('',(185.335230508,-100.3075,-4.748920859));
#412=DIRECTION('',(-1.,0.,0.000000002));
#413=VECTOR('',#412,4.000000001);
#414=LINE('',#411,#413);
#415=EDGE_CURVE('',#402,#410,#414,.T.);
#416=ORIENTED_EDGE('',*,*,#415,.T.);
#417=CARTESIAN_POINT('',(180.835230508,-100.3075,-4.24892085));
#418=VERTEX_POINT('',#417);
#419=CARTESIAN_POINT('',(181.335230508,-100.3075,-4.248920851));
#420=DIRECTION('',(0.,1.,0.));
#421=DIRECTION('',(-1.,0.,0.));
#422=AXIS2_PLACEMENT_3D('',#419,#420,#421);
#423=CIRCLE('',#422,0.5);
#424=EDGE_CURVE('',#410,#418,#423,.T.);
#425=ORIENTED_EDGE('',*,*,#424,.T.);
#426=CARTESIAN_POINT('',(180.835230509,-100.3075,-2.748920861));
#427=VERTEX_POINT('',#426);
#428=CARTESIAN_POINT('',(180.835230509,-100.3075,-2.748920861));
#429=DIRECTION('',(0.,0.,-1.));
#430=VECTOR('',#429,1.499999989);
#431=LINE('',#428,#430);
#432=EDGE_CURVE('',#427,#418,#431,.T.);
#433=ORIENTED_EDGE('',*,*,#432,.F.);
#434=CARTESIAN_POINT('',(181.335230509,-100.3075,-2.248920861));
#435=VERTEX_POINT('',#434);
#436=CARTESIAN_POINT('',(181.335230509,-100.3075,-2.748920861));
#437=DIRECTION('',(0.,1.,0.));
#438=DIRECTION('',(-1.,0.,0.));
#439=AXIS2_PLACEMENT_3D('',#436,#437,#438);
#440=CIRCLE('',#439,0.5);
#441=EDGE_CURVE('',#427,#435,#440,.T.);
#442=ORIENTED_EDGE('',*,*,#441,.T.);
#443=CARTESIAN_POINT('',(190.915230509,-100.3075,-2.248920862));
#444=VERTEX_POINT('',#443);
#445=CARTESIAN_POINT('',(181.335230509,-100.3075,-2.248920861));
#446=DIRECTION('',(1.,-0.,-0.));
#447=VECTOR('',#446,9.58);
#448=LINE('',#445,#447);
#449=EDGE_CURVE('',#435,#444,#448,.T.);
#450=ORIENTED_EDGE('',*,*,#449,.T.);
#451=CARTESIAN_POINT('',(190.915230509,-100.3075,-2.748920862));
#452=DIRECTION('',(0.,1.,0.));
#453=DIRECTION('',(-1.,0.,0.));
#454=AXIS2_PLACEMENT_3D('',#451,#452,#453);
#455=CIRCLE('',#454,0.5);
#456=EDGE_CURVE('',#444,#277,#455,.T.);
#457=ORIENTED_EDGE('',*,*,#456,.T.);
#458=EDGE_LOOP('',(#285,#294,#302,#308,#309,#318,#326,#335,#343,#351,#359,#367,#375,#384,#392,#399,#400,#408,#416,#425,#433,#442,#450,#457));
#459=FACE_BOUND('',#458,.T.);
#460=ADVANCED_FACE('',(#459),#275,.T.);
#461=CARTESIAN_POINT('',(185.335230509,-99.9075,-3.673920852));
#462=DIRECTION('',(-1.,0.,0.));
#463=DIRECTION('',(-0.,-1.,0.));
#464=AXIS2_PLACEMENT_3D('',#461,#462,#463);
#465=PLANE('',#464);
#466=ORIENTED_EDGE('',*,*,#252,.F.);
#467=CARTESIAN_POINT('',(185.335230508,-101.1075,-4.748920859));
#468=DIRECTION('',(0.,1.,0.));
#469=VECTOR('',#468,0.8);
#470=LINE('',#467,#469);
#471=EDGE_CURVE('',#239,#402,#470,.T.);
#472=ORIENTED_EDGE('',*,*,#471,.T.);
#473=ORIENTED_EDGE('',*,*,#407,.T.);
#474=ORIENTED_EDGE('',*,*,#118,.T.);
#475=CARTESIAN_POINT('',(185.335230509,-99.1175,-3.148920866));
#476=VERTEX_POINT('',#475);
#477=CARTESIAN_POINT('',(185.335230509,-99.1175,-4.248920859));
#478=DIRECTION('',(-0.,-0.,1.));
#479=VECTOR('',#478,1.099999993);
#480=LINE('',#477,#479);
#481=EDGE_CURVE('',#104,#476,#480,.T.);
#482=ORIENTED_EDGE('',*,*,#481,.T.);
#483=CARTESIAN_POINT('',(185.335230509,-100.3075,-3.148920866));
#484=DIRECTION('',(0.,1.,0.));
#485=VECTOR('',#484,1.19);
#486=LINE('',#483,#485);
#487=EDGE_CURVE('',#361,#476,#486,.T.);
#488=ORIENTED_EDGE('',*,*,#487,.F.);
#489=ORIENTED_EDGE('',*,*,#366,.T.);
#490=CARTESIAN_POINT('',(185.335230509,-101.1075,-3.108920861));
#491=DIRECTION('',(0.,1.,0.));
#492=VECTOR('',#491,0.8);
#493=LINE('',#490,#492);
#494=EDGE_CURVE('',#247,#353,#493,.T.);
#495=ORIENTED_EDGE('',*,*,#494,.F.);
#496=EDGE_LOOP('',(#466,#472,#473,#474,#482,#488,#489,#495));
#497=FACE_BOUND('',#496,.T.);
#498=ADVANCED_FACE('',(#497),#465,.F.);
#499=CARTESIAN_POINT('',(185.350230509,-101.0075,-3.108920861));
#500=DIRECTION('',(0.,-0.,1.));
#501=DIRECTION('',(0.,-1.,-0.));
#502=AXIS2_PLACEMENT_3D('',#499,#500,#501);
#503=PLANE('',#502);
#504=ORIENTED_EDGE('',*,*,#494,.T.);
#505=ORIENTED_EDGE('',*,*,#358,.F.);
#506=CARTESIAN_POINT('',(186.915230509,-101.1075,-3.108920861));
#507=DIRECTION('',(0.,1.,0.));
#508=VECTOR('',#507,0.8);
#509=LINE('',#506,#508);
#510=EDGE_CURVE('',#255,#345,#509,.T.);
#511=ORIENTED_EDGE('',*,*,#510,.F.);
#512=ORIENTED_EDGE('',*,*,#260,.T.);
#513=EDGE_LOOP('',(#504,#505,#511,#512));
#514=FACE_BOUND('',#513,.T.);
#515=ADVANCED_FACE('',(#514),#503,.F.);
#516=CARTESIAN_POINT('',(186.125230509,-101.0075,-2.248920861));
#517=DIRECTION('',(0.,0.,-1.));
#518=DIRECTION('',(0.,1.,0.));
#519=AXIS2_PLACEMENT_3D('',#516,#517,#518);
#520=PLANE('',#519);
#521=ORIENTED_EDGE('',*,*,#210,.T.);
#522=CARTESIAN_POINT('',(190.915230509,-101.1075,-2.248920862));
#523=DIRECTION('',(0.,1.,0.));
#524=VECTOR('',#523,0.8);
#525=LINE('',#522,#524);
#526=EDGE_CURVE('',#196,#444,#525,.T.);
#527=ORIENTED_EDGE('',*,*,#526,.T.);
#528=ORIENTED_EDGE('',*,*,#449,.F.);
#529=CARTESIAN_POINT('',(181.335230509,-100.3075,-2.248920861));
#530=DIRECTION('',(-0.,-1.,-0.));
#531=VECTOR('',#530,0.8);
#532=LINE('',#529,#531);
#533=EDGE_CURVE('',#435,#205,#532,.T.);
#534=ORIENTED_EDGE('',*,*,#533,.T.);
#535=EDGE_LOOP('',(#521,#527,#528,#534));
#536=FACE_BOUND('',#535,.T.);
#537=ADVANCED_FACE('',(#536),#520,.F.);
#538=CARTESIAN_POINT('',(191.415230509,-101.0075,-3.673920866));
#539=DIRECTION('',(-1.,0.,-0.));
#540=DIRECTION('',(-0.,-1.,0.));
#541=AXIS2_PLACEMENT_3D('',#538,#539,#540);
#542=PLANE('',#541);
#543=ORIENTED_EDGE('',*,*,#193,.T.);
#544=CARTESIAN_POINT('',(191.415230509,-101.1075,-4.24892087));
#545=DIRECTION('',(0.,1.,0.));
#546=VECTOR('',#545,0.8);
#547=LINE('',#544,#546);
#548=EDGE_CURVE('',#179,#279,#547,.T.);
#549=ORIENTED_EDGE('',*,*,#548,.T.);
#550=ORIENTED_EDGE('',*,*,#284,.F.);
#551=CARTESIAN_POINT('',(191.415230509,-100.3075,-2.748920862));
#552=DIRECTION('',(-0.,-1.,-0.));
#553=VECTOR('',#552,0.8);
#554=LINE('',#551,#553);
#555=EDGE_CURVE('',#277,#188,#554,.T.);
#556=ORIENTED_EDGE('',*,*,#555,.T.);
#557=EDGE_LOOP('',(#543,#549,#550,#556));
#558=FACE_BOUND('',#557,.T.);
#559=ADVANCED_FACE('',(#558),#542,.F.);
#560=CARTESIAN_POINT('',(180.835230509,-101.0075,-3.673920862));
#561=DIRECTION('',(-1.,0.,-0.));
#562=DIRECTION('',(-0.,-1.,0.));
#563=AXIS2_PLACEMENT_3D('',#560,#561,#562);
#564=PLANE('',#563);
#565=ORIENTED_EDGE('',*,*,#227,.F.);
#566=CARTESIAN_POINT('',(180.835230509,-101.1075,-2.748920861));
#567=DIRECTION('',(0.,1.,0.));
#568=VECTOR('',#567,0.8);
#569=LINE('',#566,#568);
#570=EDGE_CURVE('',#213,#427,#569,.T.);
#571=ORIENTED_EDGE('',*,*,#570,.T.);
#572=ORIENTED_EDGE('',*,*,#432,.T.);
#573=CARTESIAN_POINT('',(180.835230508,-100.3075,-4.24892085));
#574=DIRECTION('',(-0.,-1.,-0.));
#575=VECTOR('',#574,0.8);
#576=LINE('',#573,#575);
#577=EDGE_CURVE('',#418,#222,#576,.T.);
#578=ORIENTED_EDGE('',*,*,#577,.T.);
#579=EDGE_LOOP('',(#565,#571,#572,#578));
#580=FACE_BOUND('',#579,.T.);
#581=ADVANCED_FACE('',(#580),#564,.T.);
#582=CARTESIAN_POINT('',(186.360833419,-99.0675,-3.498451633));
#583=DIRECTION('',(0.,1.,0.));
#584=DIRECTION('',(-1.,0.,0.));
#585=AXIS2_PLACEMENT_3D('',#582,#583,#584);
#586=PLANE('',#585);
#587=ORIENTED_EDGE('',*,*,#101,.T.);
#588=CARTESIAN_POINT('',(186.865230509,-99.0675,-3.148920866));
#589=VERTEX_POINT('',#588);
#590=CARTESIAN_POINT('',(186.865230509,-99.0675,-4.248920862));
#591=DIRECTION('',(-0.,-0.,1.));
#592=VECTOR('',#591,1.099999996);
#593=LINE('',#590,#592);
#594=EDGE_CURVE('',#87,#589,#593,.T.);
#595=ORIENTED_EDGE('',*,*,#594,.T.);
#596=CARTESIAN_POINT('',(185.385230509,-99.0675,-3.148920866));
#597=VERTEX_POINT('',#596);
#598=CARTESIAN_POINT('',(186.865230509,-99.0675,-3.148920866));
#599=DIRECTION('',(-1.,0.,0.));
#600=VECTOR('',#599,1.48);
#601=LINE('',#598,#600);
#602=EDGE_CURVE('',#589,#597,#601,.T.);
#603=ORIENTED_EDGE('',*,*,#602,.T.);
#604=CARTESIAN_POINT('',(185.385230509,-99.0675,-3.148920866));
#605=DIRECTION('',(0.,0.,-1.));
#606=VECTOR('',#605,1.099999993);
#607=LINE('',#604,#606);
#608=EDGE_CURVE('',#597,#96,#607,.T.);
#609=ORIENTED_EDGE('',*,*,#608,.T.);
#610=EDGE_LOOP('',(#587,#595,#603,#609));
#611=FACE_BOUND('',#610,.T.);
#612=ADVANCED_FACE('',(#611),#586,.F.);
#613=CARTESIAN_POINT('',(184.535230509,-97.8975,-3.673920852));
#614=DIRECTION('',(-1.,0.,0.));
#615=DIRECTION('',(-0.,-1.,0.));
#616=AXIS2_PLACEMENT_3D('',#613,#614,#615);
#617=PLANE('',#616);
#618=CARTESIAN_POINT('',(184.535230509,-97.5175,-3.188920866));
#619=VERTEX_POINT('',#618);
#620=CARTESIAN_POINT('',(184.535230509,-97.5175,-4.208920858));
#621=VERTEX_POINT('',#620);
#622=CARTESIAN_POINT('',(184.535230509,-97.5175,-3.188920866));
#623=DIRECTION('',(0.,0.,-1.));
#624=VECTOR('',#623,1.019999992);
#625=LINE('',#622,#624);
#626=EDGE_CURVE('',#619,#621,#625,.T.);
#627=ORIENTED_EDGE('',*,*,#626,.T.);
#628=CARTESIAN_POINT('',(184.535230509,-97.5175,-4.208920858));
#629=DIRECTION('',(-0.,-1.,-0.));
#630=VECTOR('',#629,2.79);
#631=LINE('',#628,#630);
#632=EDGE_CURVE('',#621,#386,#631,.T.);
#633=ORIENTED_EDGE('',*,*,#632,.T.);
#634=ORIENTED_EDGE('',*,*,#391,.F.);
#635=CARTESIAN_POINT('',(184.535230509,-100.3075,-3.188920866));
#636=DIRECTION('',(0.,1.,0.));
#637=VECTOR('',#636,2.79);
#638=LINE('',#635,#637);
#639=EDGE_CURVE('',#377,#619,#638,.T.);
#640=ORIENTED_EDGE('',*,*,#639,.T.);
#641=EDGE_LOOP('',(#627,#633,#634,#640));
#642=FACE_BOUND('',#641,.T.);
#643=ADVANCED_FACE('',(#642),#617,.T.);
#644=CARTESIAN_POINT('',(185.350230509,-97.8975,-3.148920866));
#645=DIRECTION('',(0.,-0.,1.));
#646=DIRECTION('',(0.,-1.,-0.));
#647=AXIS2_PLACEMENT_3D('',#644,#645,#646);
#648=PLANE('',#647);
#649=ORIENTED_EDGE('',*,*,#342,.F.);
#650=CARTESIAN_POINT('',(187.675230509,-97.5175,-3.148920866));
#651=VERTEX_POINT('',#650);
#652=CARTESIAN_POINT('',(187.675230509,-100.3075,-3.148920867));
#653=DIRECTION('',(0.,1.,0.));
#654=VECTOR('',#653,2.79);
#655=LINE('',#652,#654);
#656=EDGE_CURVE('',#328,#651,#655,.T.);
#657=ORIENTED_EDGE('',*,*,#656,.T.);
#658=CARTESIAN_POINT('',(187.215230509,-97.0575,-3.148920866));
#659=VERTEX_POINT('',#658);
#660=CARTESIAN_POINT('',(187.215230509,-97.5175,-3.148920866));
#661=DIRECTION('',(0.,-0.,1.));
#662=DIRECTION('',(0.,-1.,-0.));
#663=AXIS2_PLACEMENT_3D('',#660,#661,#662);
#664=CIRCLE('',#663,0.46);
#665=EDGE_CURVE('',#651,#659,#664,.T.);
#666=ORIENTED_EDGE('',*,*,#665,.T.);
#667=CARTESIAN_POINT('',(185.035230509,-97.0575,-3.148920866));
#668=VERTEX_POINT('',#667);
#669=CARTESIAN_POINT('',(187.215230509,-97.0575,-3.148920866));
#670=DIRECTION('',(-1.,0.,0.));
#671=VECTOR('',#670,2.18);
#672=LINE('',#669,#671);
#673=EDGE_CURVE('',#659,#668,#672,.T.);
#674=ORIENTED_EDGE('',*,*,#673,.T.);
#675=CARTESIAN_POINT('',(184.575230509,-97.5175,-3.148920866));
#676=VERTEX_POINT('',#675);
#677=CARTESIAN_POINT('',(185.035230509,-97.5175,-3.148920866));
#678=DIRECTION('',(0.,-0.,1.));
#679=DIRECTION('',(0.,-1.,-0.));
#680=AXIS2_PLACEMENT_3D('',#677,#678,#679);
#681=CIRCLE('',#680,0.46);
#682=EDGE_CURVE('',#668,#676,#681,.T.);
#683=ORIENTED_EDGE('',*,*,#682,.T.);
#684=CARTESIAN_POINT('',(184.575230509,-97.5175,-3.148920866));
#685=DIRECTION('',(-0.,-1.,-0.));
#686=VECTOR('',#685,2.79);
#687=LINE('',#684,#686);
#688=EDGE_CURVE('',#676,#369,#687,.T.);
#689=ORIENTED_EDGE('',*,*,#688,.T.);
#690=ORIENTED_EDGE('',*,*,#374,.T.);
#691=ORIENTED_EDGE('',*,*,#487,.T.);
#692=CARTESIAN_POINT('',(185.385230509,-99.1175,-3.148920866));
#693=DIRECTION('',(-0.,0.,-1.));
#694=DIRECTION('',(0.,-1.,-0.));
#695=AXIS2_PLACEMENT_3D('',#692,#693,#694);
#696=CIRCLE('',#695,0.05);
#697=EDGE_CURVE('',#476,#597,#696,.T.);
#698=ORIENTED_EDGE('',*,*,#697,.T.);
#699=ORIENTED_EDGE('',*,*,#602,.F.);
#700=CARTESIAN_POINT('',(186.915230509,-99.1175,-3.148920866));
#701=VERTEX_POINT('',#700);
#702=CARTESIAN_POINT('',(186.865230509,-99.1175,-3.148920866));
#703=DIRECTION('',(-0.,0.,-1.));
#704=DIRECTION('',(0.,-1.,-0.));
#705=AXIS2_PLACEMENT_3D('',#702,#703,#704);
#706=CIRCLE('',#705,0.05);
#707=EDGE_CURVE('',#589,#701,#706,.T.);
#708=ORIENTED_EDGE('',*,*,#707,.T.);
#709=CARTESIAN_POINT('',(186.915230509,-100.3075,-3.148920866));
#710=DIRECTION('',(0.,1.,0.));
#711=VECTOR('',#710,1.19);
#712=LINE('',#709,#711);
#713=EDGE_CURVE('',#337,#701,#712,.T.);
#714=ORIENTED_EDGE('',*,*,#713,.F.);
#715=EDGE_LOOP('',(#649,#657,#666,#674,#683,#689,#690,#691,#698,#699,#708,#714));
#716=FACE_BOUND('',#715,.T.);
#717=ADVANCED_FACE('',(#716),#648,.T.);
#718=CARTESIAN_POINT('',(187.715230509,-97.8975,-3.673920852));
#719=DIRECTION('',(-1.,0.,0.));
#720=DIRECTION('',(-0.,-1.,0.));
#721=AXIS2_PLACEMENT_3D('',#718,#719,#720);
#722=PLANE('',#721);
#723=ORIENTED_EDGE('',*,*,#325,.T.);
#724=CARTESIAN_POINT('',(187.715230509,-97.5175,-4.208920864));
#725=VERTEX_POINT('',#724);
#726=CARTESIAN_POINT('',(187.715230509,-100.3075,-4.208920864));
#727=DIRECTION('',(0.,1.,0.));
#728=VECTOR('',#727,2.79);
#729=LINE('',#726,#728);
#730=EDGE_CURVE('',#311,#725,#729,.T.);
#731=ORIENTED_EDGE('',*,*,#730,.T.);
#732=CARTESIAN_POINT('',(187.715230509,-97.5175,-3.188920867));
#733=VERTEX_POINT('',#732);
#734=CARTESIAN_POINT('',(187.715230509,-97.5175,-4.208920864));
#735=DIRECTION('',(-0.,-0.,1.));
#736=VECTOR('',#735,1.019999997);
#737=LINE('',#734,#736);
#738=EDGE_CURVE('',#725,#733,#737,.T.);
#739=ORIENTED_EDGE('',*,*,#738,.T.);
#740=CARTESIAN_POINT('',(187.715230509,-97.5175,-3.188920867));
#741=DIRECTION('',(-0.,-1.,-0.));
#742=VECTOR('',#741,2.79);
#743=LINE('',#740,#742);
#744=EDGE_CURVE('',#733,#320,#743,.T.);
#745=ORIENTED_EDGE('',*,*,#744,.T.);
#746=EDGE_LOOP('',(#723,#731,#739,#745));
#747=FACE_BOUND('',#746,.T.);
#748=ADVANCED_FACE('',(#747),#722,.F.);
#749=CARTESIAN_POINT('',(186.360833419,-97.0175,-3.498451633));
#750=DIRECTION('',(0.,1.,0.));
#751=DIRECTION('',(-1.,0.,0.));
#752=AXIS2_PLACEMENT_3D('',#749,#750,#751);
#753=PLANE('',#752);
#754=CARTESIAN_POINT('',(187.215230509,-97.0175,-3.188920866));
#755=VERTEX_POINT('',#754);
#756=CARTESIAN_POINT('',(187.215230509,-97.0175,-4.208920863));
#757=VERTEX_POINT('',#756);
#758=CARTESIAN_POINT('',(187.215230509,-97.0175,-3.188920866));
#759=DIRECTION('',(0.,0.,-1.));
#760=VECTOR('',#759,1.019999997);
#761=LINE('',#758,#760);
#762=EDGE_CURVE('',#755,#757,#761,.T.);
#763=ORIENTED_EDGE('',*,*,#762,.T.);
#764=CARTESIAN_POINT('',(185.035230509,-97.0175,-4.208920858));
#765=VERTEX_POINT('',#764);
#766=CARTESIAN_POINT('',(187.215230509,-97.0175,-4.208920863));
#767=DIRECTION('',(-1.,0.,0.000000002));
#768=VECTOR('',#767,2.18);
#769=LINE('',#766,#768);
#770=EDGE_CURVE('',#757,#765,#769,.T.);
#771=ORIENTED_EDGE('',*,*,#770,.T.);
#772=CARTESIAN_POINT('',(185.035230509,-97.0175,-3.188920866));
#773=VERTEX_POINT('',#772);
#774=CARTESIAN_POINT('',(185.035230509,-97.0175,-4.208920858));
#775=DIRECTION('',(-0.,-0.,1.));
#776=VECTOR('',#775,1.019999993);
#777=LINE('',#774,#776);
#778=EDGE_CURVE('',#765,#773,#777,.T.);
#779=ORIENTED_EDGE('',*,*,#778,.T.);
#780=CARTESIAN_POINT('',(185.035230509,-97.0175,-3.188920866));
#781=DIRECTION('',(1.,-0.,-0.));
#782=VECTOR('',#781,2.18);
#783=LINE('',#780,#782);
#784=EDGE_CURVE('',#773,#755,#783,.T.);
#785=ORIENTED_EDGE('',*,*,#784,.T.);
#786=EDGE_LOOP('',(#763,#771,#779,#785));
#787=FACE_BOUND('',#786,.T.);
#788=ADVANCED_FACE('',(#787),#753,.T.);
#789=CARTESIAN_POINT('',(186.915230509,-99.9075,-3.673920852));
#790=DIRECTION('',(1.,-0.,0.));
#791=DIRECTION('',(0.,1.,0.));
#792=AXIS2_PLACEMENT_3D('',#789,#790,#791);
#793=PLANE('',#792);
#794=ORIENTED_EDGE('',*,*,#713,.T.);
#795=CARTESIAN_POINT('',(186.915230509,-99.1175,-3.148920866));
#796=DIRECTION('',(0.,0.,-1.));
#797=VECTOR('',#796,1.099999996);
#798=LINE('',#795,#797);
#799=EDGE_CURVE('',#701,#79,#798,.T.);
#800=ORIENTED_EDGE('',*,*,#799,.T.);
#801=ORIENTED_EDGE('',*,*,#84,.F.);
#802=ORIENTED_EDGE('',*,*,#307,.F.);
#803=CARTESIAN_POINT('',(186.915230508,-101.1075,-4.748920862));
#804=DIRECTION('',(0.,1.,0.));
#805=VECTOR('',#804,0.8);
#806=LINE('',#803,#805);
#807=EDGE_CURVE('',#171,#296,#806,.T.);
#808=ORIENTED_EDGE('',*,*,#807,.F.);
#809=ORIENTED_EDGE('',*,*,#266,.F.);
#810=ORIENTED_EDGE('',*,*,#510,.T.);
#811=ORIENTED_EDGE('',*,*,#350,.F.);
#812=EDGE_LOOP('',(#794,#800,#801,#802,#808,#809,#810,#811));
#813=FACE_BOUND('',#812,.T.);
#814=ADVANCED_FACE('',(#813),#793,.F.);
#815=CARTESIAN_POINT('',(187.215230509,-97.5175,-3.673920853));
#816=DIRECTION('',(0.,0.,-1.));
#817=DIRECTION('',(0.,1.,0.));
#818=AXIS2_PLACEMENT_3D('',#815,#816,#817);
#819=CYLINDRICAL_SURFACE('',#818,0.5);
#820=ORIENTED_EDGE('',*,*,#738,.F.);
#821=CARTESIAN_POINT('',(187.715230509,-97.5175,-4.208920864));
#822=CARTESIAN_POINT('',(187.715230509,-97.451472871,-4.208920864));
#823=CARTESIAN_POINT('',(187.70224074,-97.386684661,-4.208920864));
#824=CARTESIAN_POINT('',(187.677171306,-97.326160771,-4.208920864));
#825=CARTESIAN_POINT('',(187.652101871,-97.265636882,-4.208920864));
#826=CARTESIAN_POINT('',(187.61498729,-97.210205531,-4.208920863));
#827=CARTESIAN_POINT('',(187.568910282,-97.164073016,-4.208920863));
#828=CARTESIAN_POINT('',(187.476756268,-97.071807986,-4.208920863));
#829=CARTESIAN_POINT('',(187.347284767,-97.0175,-4.208920863));
#830=CARTESIAN_POINT('',(187.215230509,-97.0175,-4.208920863));
#831=B_SPLINE_CURVE_WITH_KNOTS('',3,(#821,#822,#823,#824,#825,#826,#827,#828,#829,#830),.UNSPECIFIED.,.F.,.F.,(4,3,3,4),(0.,0.00019527,0.00039054,0.00078108),.UNSPECIFIED.);
#832=EDGE_CURVE('',#725,#757,#831,.T.);
#833=ORIENTED_EDGE('',*,*,#832,.T.);
#834=ORIENTED_EDGE('',*,*,#762,.F.);
#835=CARTESIAN_POINT('',(187.215230509,-97.5175,-3.188920866));
#836=DIRECTION('',(-0.,0.,-1.));
#837=DIRECTION('',(0.,-1.,-0.));
#838=AXIS2_PLACEMENT_3D('',#835,#836,#837);
#839=CIRCLE('',#838,0.5);
#840=EDGE_CURVE('',#755,#733,#839,.T.);
#841=ORIENTED_EDGE('',*,*,#840,.T.);
#842=EDGE_LOOP('',(#820,#833,#834,#841));
#843=FACE_BOUND('',#842,.T.);
#844=ADVANCED_FACE('',(#843),#819,.T.);
#845=CARTESIAN_POINT('',(185.035230509,-97.5175,-3.498451633));
#846=DIRECTION('',(-0.,-0.,1.));
#847=DIRECTION('',(0.,-1.,-0.));
#848=AXIS2_PLACEMENT_3D('',#845,#846,#847);
#849=CYLINDRICAL_SURFACE('',#848,0.5);
#850=ORIENTED_EDGE('',*,*,#778,.F.);
#851=CARTESIAN_POINT('',(185.035230509,-97.0175,-4.208920858));
#852=CARTESIAN_POINT('',(184.96920338,-97.0175,-4.208920858));
#853=CARTESIAN_POINT('',(184.90441517,-97.030489769,-4.208920858));
#854=CARTESIAN_POINT('',(184.84389128,-97.055559203,-4.208920858));
#855=CARTESIAN_POINT('',(184.783367391,-97.080628638,-4.208920858));
#856=CARTESIAN_POINT('',(184.72793604,-97.117743219,-4.208920858));
#857=CARTESIAN_POINT('',(184.681803525,-97.163820227,-4.208920858));
#858=CARTESIAN_POINT('',(184.589538495,-97.255974241,-4.208920858));
#859=CARTESIAN_POINT('',(184.535230509,-97.385445742,-4.208920857));
#860=CARTESIAN_POINT('',(184.535230509,-97.5175,-4.208920857));
#861=B_SPLINE_CURVE_WITH_KNOTS('',3,(#851,#852,#853,#854,#855,#856,#857,#858,#859,#860),.UNSPECIFIED.,.F.,.F.,(4,3,3,4),(0.,0.00019527,0.00039054,0.00078108),.UNSPECIFIED.);
#862=EDGE_CURVE('',#765,#621,#861,.T.);
#863=ORIENTED_EDGE('',*,*,#862,.T.);
#864=ORIENTED_EDGE('',*,*,#626,.F.);
#865=CARTESIAN_POINT('',(185.035230509,-97.5175,-3.188920866));
#866=DIRECTION('',(-0.,0.,-1.));
#867=DIRECTION('',(0.,-1.,-0.));
#868=AXIS2_PLACEMENT_3D('',#865,#866,#867);
#869=CIRCLE('',#868,0.5);
#870=EDGE_CURVE('',#619,#773,#869,.T.);
#871=ORIENTED_EDGE('',*,*,#870,.T.);
#872=EDGE_LOOP('',(#850,#863,#864,#871));
#873=FACE_BOUND('',#872,.T.);
#874=ADVANCED_FACE('',(#873),#849,.T.);
#875=CARTESIAN_POINT('',(184.575230509,-97.8975,-3.188920866));
#876=DIRECTION('',(-0.,-1.,-0.));
#877=DIRECTION('',(1.,-0.,0.));
#878=AXIS2_PLACEMENT_3D('',#875,#876,#877);
#879=CYLINDRICAL_SURFACE('',#878,0.04);
#880=ORIENTED_EDGE('',*,*,#383,.F.);
#881=ORIENTED_EDGE('',*,*,#688,.F.);
#882=CARTESIAN_POINT('',(184.575230509,-97.5175,-3.188920866));
#883=DIRECTION('',(0.,1.,0.));
#884=DIRECTION('',(0.,-0.,1.));
#885=AXIS2_PLACEMENT_3D('',#882,#883,#884);
#886=CIRCLE('',#885,0.04);
#887=EDGE_CURVE('',#619,#676,#886,.T.);
#888=ORIENTED_EDGE('',*,*,#887,.F.);
#889=ORIENTED_EDGE('',*,*,#639,.F.);
#890=EDGE_LOOP('',(#880,#881,#888,#889));
#891=FACE_BOUND('',#890,.T.);
#892=ADVANCED_FACE('',(#891),#879,.T.);
#893=CARTESIAN_POINT('',(185.035230509,-97.5175,-3.188920866));
#894=DIRECTION('',(0.,-0.,1.));
#895=DIRECTION('',(0.,-1.,-0.));
#896=AXIS2_PLACEMENT_3D('',#893,#894,#895);
#897=TOROIDAL_SURFACE('',#896,0.46,0.04);
#898=ORIENTED_EDGE('',*,*,#887,.T.);
#899=ORIENTED_EDGE('',*,*,#682,.F.);
#900=CARTESIAN_POINT('',(185.035230509,-97.0575,-3.188920866));
#901=DIRECTION('',(1.,0.,0.));
#902=DIRECTION('',(0.,0.,-1.));
#903=AXIS2_PLACEMENT_3D('',#900,#901,#902);
#904=CIRCLE('',#903,0.04);
#905=EDGE_CURVE('',#773,#668,#904,.T.);
#906=ORIENTED_EDGE('',*,*,#905,.F.);
#907=ORIENTED_EDGE('',*,*,#870,.F.);
#908=EDGE_LOOP('',(#898,#899,#906,#907));
#909=FACE_BOUND('',#908,.T.);
#910=ADVANCED_FACE('',(#909),#897,.T.);
#911=CARTESIAN_POINT('',(185.350230509,-97.0575,-3.188920866));
#912=DIRECTION('',(-1.,0.,0.));
#913=DIRECTION('',(-0.,-1.,0.));
#914=AXIS2_PLACEMENT_3D('',#911,#912,#913);
#915=CYLINDRICAL_SURFACE('',#914,0.04);
#916=ORIENTED_EDGE('',*,*,#905,.T.);
#917=ORIENTED_EDGE('',*,*,#673,.F.);
#918=CARTESIAN_POINT('',(187.215230509,-97.0575,-3.188920866));
#919=DIRECTION('',(1.,-0.,-0.));
#920=DIRECTION('',(0.,0.,1.));
#921=AXIS2_PLACEMENT_3D('',#918,#919,#920);
#922=CIRCLE('',#921,0.04);
#923=EDGE_CURVE('',#755,#659,#922,.T.);
#924=ORIENTED_EDGE('',*,*,#923,.F.);
#925=ORIENTED_EDGE('',*,*,#784,.F.);
#926=EDGE_LOOP('',(#916,#917,#924,#925));
#927=FACE_BOUND('',#926,.T.);
#928=ADVANCED_FACE('',(#927),#915,.T.);
#929=CARTESIAN_POINT('',(187.215230509,-97.5175,-3.188920866));
#930=DIRECTION('',(0.,-0.,1.));
#931=DIRECTION('',(0.,-1.,-0.));
#932=AXIS2_PLACEMENT_3D('',#929,#930,#931);
#933=TOROIDAL_SURFACE('',#932,0.46,0.04);
#934=ORIENTED_EDGE('',*,*,#923,.T.);
#935=ORIENTED_EDGE('',*,*,#665,.F.);
#936=CARTESIAN_POINT('',(187.675230509,-97.5175,-3.188920867));
#937=DIRECTION('',(-0.,-1.,-0.));
#938=DIRECTION('',(-1.,0.,0.));
#939=AXIS2_PLACEMENT_3D('',#936,#937,#938);
#940=CIRCLE('',#939,0.04);
#941=EDGE_CURVE('',#733,#651,#940,.T.);
#942=ORIENTED_EDGE('',*,*,#941,.F.);
#943=ORIENTED_EDGE('',*,*,#840,.F.);
#944=EDGE_LOOP('',(#934,#935,#942,#943));
#945=FACE_BOUND('',#944,.T.);
#946=ADVANCED_FACE('',(#945),#933,.T.);
#947=CARTESIAN_POINT('',(187.675230509,-97.8975,-3.188920867));
#948=DIRECTION('',(0.,1.,0.));
#949=DIRECTION('',(-1.,0.,0.));
#950=AXIS2_PLACEMENT_3D('',#947,#948,#949);
#951=CYLINDRICAL_SURFACE('',#950,0.04);
#952=ORIENTED_EDGE('',*,*,#941,.T.);
#953=ORIENTED_EDGE('',*,*,#656,.F.);
#954=ORIENTED_EDGE('',*,*,#334,.F.);
#955=ORIENTED_EDGE('',*,*,#744,.F.);
#956=EDGE_LOOP('',(#952,#953,#954,#955));
#957=FACE_BOUND('',#956,.T.);
#958=ADVANCED_FACE('',(#957),#951,.T.);
#959=CARTESIAN_POINT('',(187.675230509,-101.0075,-4.208920864));
#960=DIRECTION('',(-0.,-1.,-0.));
#961=DIRECTION('',(1.,-0.,0.));
#962=AXIS2_PLACEMENT_3D('',#959,#960,#961);
#963=CYLINDRICAL_SURFACE('',#962,0.04);
#964=ORIENTED_EDGE('',*,*,#317,.F.);
#965=ORIENTED_EDGE('',*,*,#68,.F.);
#966=CARTESIAN_POINT('',(187.675230509,-97.5175,-4.208920864));
#967=DIRECTION('',(0.,1.,0.));
#968=DIRECTION('',(0.,-0.,1.));
#969=AXIS2_PLACEMENT_3D('',#966,#967,#968);
#970=CIRCLE('',#969,0.04);
#971=EDGE_CURVE('',#725,#61,#970,.T.);
#972=ORIENTED_EDGE('',*,*,#971,.F.);
#973=ORIENTED_EDGE('',*,*,#730,.F.);
#974=EDGE_LOOP('',(#964,#965,#972,#973));
#975=FACE_BOUND('',#974,.T.);
#976=ADVANCED_FACE('',(#975),#963,.T.);
#977=CARTESIAN_POINT('',(187.215230509,-97.5175,-4.208920863));
#978=DIRECTION('',(0.000000002,-0.,1.));
#979=DIRECTION('',(1.,0.,-0.000000002));
#980=AXIS2_PLACEMENT_3D('',#977,#978,#979);
#981=TOROIDAL_SURFACE('',#980,0.46,0.04);
#982=ORIENTED_EDGE('',*,*,#971,.T.);
#983=ORIENTED_EDGE('',*,*,#158,.F.);
#984=CARTESIAN_POINT('',(187.215230509,-97.0575,-4.208920863));
#985=DIRECTION('',(-1.,0.,0.000000002));
#986=DIRECTION('',(0.000000002,0.,1.));
#987=AXIS2_PLACEMENT_3D('',#984,#985,#986);
#988=CIRCLE('',#987,0.04);
#989=EDGE_CURVE('',#757,#146,#988,.T.);
#990=ORIENTED_EDGE('',*,*,#989,.F.);
#991=ORIENTED_EDGE('',*,*,#832,.F.);
#992=EDGE_LOOP('',(#982,#983,#990,#991));
#993=FACE_BOUND('',#992,.T.);
#994=ADVANCED_FACE('',(#993),#981,.T.);
#995=CARTESIAN_POINT('',(186.275230491,-97.0575,-4.208920861));
#996=DIRECTION('',(-1.,0.,0.000000002));
#997=DIRECTION('',(0.000000002,0.,1.));
#998=AXIS2_PLACEMENT_3D('',#995,#996,#997);
#999=CYLINDRICAL_SURFACE('',#998,0.04);
#1000=ORIENTED_EDGE('',*,*,#989,.T.);
#1001=ORIENTED_EDGE('',*,*,#151,.F.);
#1002=CARTESIAN_POINT('',(185.035230509,-97.0575,-4.208920858));
#1003=DIRECTION('',(-1.,0.,0.000000002));
#1004=DIRECTION('',(0.000000002,0.,1.));
#1005=AXIS2_PLACEMENT_3D('',#1002,#1003,#1004);
#1006=CIRCLE('',#1005,0.04);
#1007=EDGE_CURVE('',#765,#137,#1006,.T.);
#1008=ORIENTED_EDGE('',*,*,#1007,.F.);
#1009=ORIENTED_EDGE('',*,*,#770,.F.);
#1010=EDGE_LOOP('',(#1000,#1001,#1008,#1009));
#1011=FACE_BOUND('',#1010,.T.);
#1012=ADVANCED_FACE('',(#1011),#999,.T.);
#1013=CARTESIAN_POINT('',(185.035230509,-97.5175,-4.208920858));
#1014=DIRECTION('',(0.000000002,-0.,1.));
#1015=DIRECTION('',(1.,0.,-0.000000002));
#1016=AXIS2_PLACEMENT_3D('',#1013,#1014,#1015);
#1017=TOROIDAL_SURFACE('',#1016,0.46,0.04);
#1018=ORIENTED_EDGE('',*,*,#1007,.T.);
#1019=ORIENTED_EDGE('',*,*,#143,.F.);
#1020=CARTESIAN_POINT('',(184.575230509,-97.5175,-4.208920858));
#1021=DIRECTION('',(-0.,-1.,-0.));
#1022=DIRECTION('',(-1.,0.,0.));
#1023=AXIS2_PLACEMENT_3D('',#1020,#1021,#1022);
#1024=CIRCLE('',#1023,0.04);
#1025=EDGE_CURVE('',#621,#129,#1024,.T.);
#1026=ORIENTED_EDGE('',*,*,#1025,.F.);
#1027=ORIENTED_EDGE('',*,*,#862,.F.);
#1028=EDGE_LOOP('',(#1018,#1019,#1026,#1027));
#1029=FACE_BOUND('',#1028,.T.);
#1030=ADVANCED_FACE('',(#1029),#1017,.T.);
#1031=CARTESIAN_POINT('',(184.575230509,-97.8975,-4.208920858));
#1032=DIRECTION('',(0.,1.,0.));
#1033=DIRECTION('',(-1.,0.,0.));
#1034=AXIS2_PLACEMENT_3D('',#1031,#1032,#1033);
#1035=CYLINDRICAL_SURFACE('',#1034,0.04);
#1036=ORIENTED_EDGE('',*,*,#1025,.T.);
#1037=ORIENTED_EDGE('',*,*,#134,.F.);
#1038=ORIENTED_EDGE('',*,*,#398,.F.);
#1039=ORIENTED_EDGE('',*,*,#632,.F.);
#1040=EDGE_LOOP('',(#1036,#1037,#1038,#1039));
#1041=FACE_BOUND('',#1040,.T.);
#1042=ADVANCED_FACE('',(#1041),#1035,.T.);
#1043=CARTESIAN_POINT('',(185.385230509,-99.1175,-3.673920852));
#1044=DIRECTION('',(0.,0.,-1.));
#1045=DIRECTION('',(0.,1.,0.));
#1046=AXIS2_PLACEMENT_3D('',#1043,#1044,#1045);
#1047=CYLINDRICAL_SURFACE('',#1046,0.05);
#1048=ORIENTED_EDGE('',*,*,#110,.F.);
#1049=ORIENTED_EDGE('',*,*,#608,.F.);
#1050=ORIENTED_EDGE('',*,*,#697,.F.);
#1051=ORIENTED_EDGE('',*,*,#481,.F.);
#1052=EDGE_LOOP('',(#1048,#1049,#1050,#1051));
#1053=FACE_BOUND('',#1052,.T.);
#1054=ADVANCED_FACE('',(#1053),#1047,.F.);
#1055=CARTESIAN_POINT('',(186.865230509,-99.1175,-3.673920852));
#1056=DIRECTION('',(-0.,-0.,1.));
#1057=DIRECTION('',(0.,-1.,-0.));
#1058=AXIS2_PLACEMENT_3D('',#1055,#1056,#1057);
#1059=CYLINDRICAL_SURFACE('',#1058,0.05);
#1060=ORIENTED_EDGE('',*,*,#707,.F.);
#1061=ORIENTED_EDGE('',*,*,#594,.F.);
#1062=ORIENTED_EDGE('',*,*,#93,.F.);
#1063=ORIENTED_EDGE('',*,*,#799,.F.);
#1064=EDGE_LOOP('',(#1060,#1061,#1062,#1063));
#1065=FACE_BOUND('',#1064,.T.);
#1066=ADVANCED_FACE('',(#1065),#1059,.F.);
#1067=CARTESIAN_POINT('',(181.335230509,-101.0075,-2.748920861));
#1068=DIRECTION('',(0.,1.,0.));
#1069=DIRECTION('',(-1.,0.,0.));
#1070=AXIS2_PLACEMENT_3D('',#1067,#1068,#1069);
#1071=CYLINDRICAL_SURFACE('',#1070,0.5);
#1072=ORIENTED_EDGE('',*,*,#441,.F.);
#1073=ORIENTED_EDGE('',*,*,#570,.F.);
#1074=ORIENTED_EDGE('',*,*,#219,.F.);
#1075=ORIENTED_EDGE('',*,*,#533,.F.);
#1076=EDGE_LOOP('',(#1072,#1073,#1074,#1075));
#1077=FACE_BOUND('',#1076,.T.);
#1078=ADVANCED_FACE('',(#1077),#1071,.T.);
#1079=CARTESIAN_POINT('',(190.915230509,-101.0075,-2.748920862));
#1080=DIRECTION('',(-0.,-1.,-0.));
#1081=DIRECTION('',(1.,-0.,0.));
#1082=AXIS2_PLACEMENT_3D('',#1079,#1080,#1081);
#1083=CYLINDRICAL_SURFACE('',#1082,0.5);
#1084=ORIENTED_EDGE('',*,*,#456,.F.);
#1085=ORIENTED_EDGE('',*,*,#526,.F.);
#1086=ORIENTED_EDGE('',*,*,#202,.F.);
#1087=ORIENTED_EDGE('',*,*,#555,.F.);
#1088=EDGE_LOOP('',(#1084,#1085,#1086,#1087));
#1089=FACE_BOUND('',#1088,.T.);
#1090=ADVANCED_FACE('',(#1089),#1083,.T.);
#1091=CARTESIAN_POINT('',(-1.525124784,0.,-4.748920491));
#1092=DIRECTION('',(-0.000000002,0.,-1.));
#1093=DIRECTION('',(0.,1.,0.));
#1094=AXIS2_PLACEMENT_3D('',#1091,#1092,#1093);
#1095=PLANE('',#1094);
#1096=ORIENTED_EDGE('',*,*,#244,.T.);
#1097=CARTESIAN_POINT('',(181.335230507,-101.1075,-4.748920851));
#1098=DIRECTION('',(0.,1.,0.));
#1099=VECTOR('',#1098,0.8);
#1100=LINE('',#1097,#1099);
#1101=EDGE_CURVE('',#230,#410,#1100,.T.);
#1102=ORIENTED_EDGE('',*,*,#1101,.T.);
#1103=ORIENTED_EDGE('',*,*,#415,.F.);
#1104=ORIENTED_EDGE('',*,*,#471,.F.);
#1105=EDGE_LOOP('',(#1096,#1102,#1103,#1104));
#1106=FACE_BOUND('',#1105,.T.);
#1107=ADVANCED_FACE('',(#1106),#1095,.T.);
#1108=CARTESIAN_POINT('',(-1.525124784,0.,-4.748920491));
#1109=DIRECTION('',(-0.000000002,0.,-1.));
#1110=DIRECTION('',(0.,1.,0.));
#1111=AXIS2_PLACEMENT_3D('',#1108,#1109,#1110);
#1112=PLANE('',#1111);
#1113=ORIENTED_EDGE('',*,*,#301,.F.);
#1114=CARTESIAN_POINT('',(190.915230508,-100.3075,-4.74892087));
#1115=DIRECTION('',(-0.,-1.,-0.));
#1116=VECTOR('',#1115,0.8);
#1117=LINE('',#1114,#1116);
#1118=EDGE_CURVE('',#287,#169,#1117,.T.);
#1119=ORIENTED_EDGE('',*,*,#1118,.T.);
#1120=ORIENTED_EDGE('',*,*,#176,.T.);
#1121=ORIENTED_EDGE('',*,*,#807,.T.);
#1122=EDGE_LOOP('',(#1113,#1119,#1120,#1121));
#1123=FACE_BOUND('',#1122,.T.);
#1124=ADVANCED_FACE('',(#1123),#1112,.T.);
#1125=CARTESIAN_POINT('',(181.335230508,0.,-4.248920851));
#1126=DIRECTION('',(-0.,-1.,-0.));
#1127=DIRECTION('',(0.,0.,-1.));
#1128=AXIS2_PLACEMENT_3D('',#1125,#1126,#1127);
#1129=CYLINDRICAL_SURFACE('',#1128,0.5);
#1130=ORIENTED_EDGE('',*,*,#236,.F.);
#1131=ORIENTED_EDGE('',*,*,#577,.F.);
#1132=ORIENTED_EDGE('',*,*,#424,.F.);
#1133=ORIENTED_EDGE('',*,*,#1101,.F.);
#1134=EDGE_LOOP('',(#1130,#1131,#1132,#1133));
#1135=FACE_BOUND('',#1134,.T.);
#1136=ADVANCED_FACE('',(#1135),#1129,.T.);
#1137=CARTESIAN_POINT('',(190.915230509,-0.,-4.24892087));
#1138=DIRECTION('',(0.,1.,0.));
#1139=DIRECTION('',(-1.,0.,0.));
#1140=AXIS2_PLACEMENT_3D('',#1137,#1138,#1139);
#1141=CYLINDRICAL_SURFACE('',#1140,0.5);
#1142=ORIENTED_EDGE('',*,*,#293,.F.);
#1143=ORIENTED_EDGE('',*,*,#548,.F.);
#1144=ORIENTED_EDGE('',*,*,#185,.F.);
#1145=ORIENTED_EDGE('',*,*,#1118,.F.);
#1146=EDGE_LOOP('',(#1142,#1143,#1144,#1145));
#1147=FACE_BOUND('',#1146,.T.);
#1148=ADVANCED_FACE('',(#1147),#1141,.T.);
#1149=CLOSED_SHELL('',(#162,#270,#460,#498,#515,#537,#559,#581,#612,#643,#717,#748,#788,#814,#844,#874,#892,#910,#928,#946,#958,#976,#994,#1012,#1030,#1042,
#1054,#1066,#1078,#1090,#1107,#1124,#1136,#1148));
#1150=MANIFOLD_SOLID_BREP('Switch Cap',#1149);
#1151=COLOUR_RGB('',0.627451003,0.627451003,0.627451003);
#1152=FILL_AREA_STYLE_COLOUR('',#1151);
#1153=FILL_AREA_STYLE('',(#1152));
#1154=SURFACE_STYLE_FILL_AREA(#1153);
#1155=SURFACE_SIDE_STYLE('',(#1154));
#1156=SURFACE_STYLE_USAGE(.BOTH.,#1155);
#1157=PRESENTATION_STYLE_ASSIGNMENT((#1156));
#54=STYLED_ITEM('',(#1157),#1150);
#35=SHAPE_REPRESENTATION('Left',(#15),#33);
#36=ADVANCED_BREP_SHAPE_REPRESENTATION('Left',(#1150),#33);
#1165=SHAPE_REPRESENTATION_RELATIONSHIP('','',#35,#36);
#1166=CARTESIAN_POINT('',(0.,0.,0.));
#1167=DIRECTION('',(0.,0.,1.));
#1168=DIRECTION('',(1.,0.,0.));
#1169=AXIS2_PLACEMENT_3D('',#1166,#1167,#1168);
#1171=MAPPED_ITEM('',#1170,#1169);
#1170=REPRESENTATION_MAP(#1169,#35);
#1172=APPLICATION_CONTEXT('Managed model based 3d engineering');
#1173=APPLICATION_PROTOCOL_DEFINITION('international standard','ap242_managed_model_based_3d_engineering',2014,#1172);
#1174=PRODUCT_CONTEXT('',#1172,'mechanical');
#1175=PRODUCT_DEFINITION_CONTEXT('part definition',#1172,'design');
#43=PRODUCT('Left','Left','',(#1174));
#1176=PRODUCT_RELATED_PRODUCT_CATEGORY('part','',(#43));
#1177=PRODUCT_DEFINITION_FORMATION_WITH_SPECIFIED_SOURCE('','',#43,.NOT_KNOWN.);
#44=PRODUCT_DEFINITION('design','',#1177,#1175);
#42=PRODUCT_DEFINITION_SHAPE('','',#44);
#1178=SHAPE_DEFINITION_REPRESENTATION(#42,#35);
#34=DRAUGHTING_MODEL('',(#1171),#33);
#16=SHAPE_REPRESENTATION('root',(#15,#48),#10);
#1179=CARTESIAN_POINT('',(0.,0.,0.));
#1180=DIRECTION('',(0.,0.,1.));
#1181=DIRECTION('',(1.,0.,0.));
#1182=AXIS2_PLACEMENT_3D('',#1179,#1180,#1181);
#1184=MAPPED_ITEM('',#1183,#1182);
#1183=REPRESENTATION_MAP(#1182,#16);
#24=PRODUCT('root','root','',(#1174));
#1185=PRODUCT_RELATED_PRODUCT_CATEGORY('part','',(#24));
#1186=PRODUCT_DEFINITION_FORMATION_WITH_SPECIFIED_SOURCE('','',#24,.NOT_KNOWN.);
#25=PRODUCT_DEFINITION('design','',#1186,#1175);
#23=PRODUCT_DEFINITION_SHAPE('','',#25);
#1187=SHAPE_DEFINITION_REPRESENTATION(#23,#16);
#11=DRAUGHTING_MODEL('',(#1184),#10);
#1188=DESCRIPTIVE_REPRESENTATION_ITEM('KEY','/Users/will/Library/Containers/com.shapr3d.shapr/Data/tmp/CBADD22F-4CFC-4FAA-AEBD-875379611CFF.tmp');
#1189=PROPERTY_DEFINITION('KEY','',#25);
#1190=REPRESENTATION('',(#1188),#10);
#1191=PROPERTY_DEFINITION_REPRESENTATION(#1189,#1190);
#1192=GENERAL_PROPERTY('','KEY','');
#1193=GENERAL_PROPERTY_ASSOCIATION('','',#1192,#1189);
#1=MECHANICAL_DESIGN_GEOMETRIC_PRESENTATION_REPRESENTATION('',(#54),#10);
ENDSEC;
END-ISO-10303-21;
